<svg version="1.1" id="Layer_1" xmlns="http://www.w3.org/2000/svg" xmlns:xlink="http://www.w3.org/1999/xlink" x="0px" y="0px"
	 width="100%" viewBox="0 0 225 225" enable-background="new 0 0 225 225" xml:space="preserve">
<path fill="#FFFEFE" opacity="1.000000" stroke="none" 
	d="
M107.000000,226.000000 
	C71.333336,226.000000 36.166672,226.000000 1.000005,226.000000 
	C1.000003,151.000000 1.000003,76.000015 1.000002,1.000015 
	C75.999992,1.000010 150.999985,1.000010 225.999969,1.000005 
	C225.999985,75.999985 225.999985,150.999969 226.000000,225.999969 
	C186.500000,226.000000 147.000000,226.000000 107.000000,226.000000 
M38.957066,131.935043 
	C39.014683,143.945404 39.072300,155.955750 39.110470,168.602646 
	C40.087799,169.325012 41.065132,170.047379 42.951492,170.989929 
	C85.309677,171.002045 127.667862,171.021896 170.026047,171.015945 
	C175.001770,171.015244 179.977478,170.872559 185.514587,170.842606 
	C186.042999,170.343552 186.571426,169.844498 187.795364,168.766251 
	C187.822952,153.519943 187.850525,138.273636 187.867920,122.340820 
	C186.465317,121.190063 185.130020,119.943520 183.649765,118.903252 
	C167.612656,107.632973 151.521149,96.439743 135.526703,85.109428 
	C132.451660,82.931091 129.750793,82.328110 125.898384,83.529358 
	C115.644691,86.726654 105.041000,79.469864 105.505028,70.100899 
	C105.899872,62.128792 95.445145,54.320751 88.069260,57.199978 
	C60.445728,67.982994 45.020985,88.799866 39.205757,117.276871 
	C38.806576,119.231651 40.383373,121.589935 41.911137,124.128403 
	C85.922012,124.171013 129.932892,124.213623 174.430374,124.764542 
	C178.099243,129.493713 174.121567,129.193710 171.344238,129.204681 
	C156.550110,129.263016 141.755463,129.191849 126.037315,129.032181 
	C104.374321,129.076599 82.711327,129.121017 60.117523,129.005173 
	C54.696079,129.083115 49.267986,129.034271 43.857338,129.318069 
	C42.282124,129.400696 40.756741,130.433334 38.957066,131.935043 
z"/>
<path fill="#E60334" opacity="1.000000" stroke="none" 
	d="
M42.042465,170.769745 
	C41.065132,170.047379 40.087799,169.325012 39.392403,167.974487 
	C39.783043,158.630234 39.975483,149.913971 39.958412,141.198120 
	C39.951775,137.808426 39.472496,134.419678 39.208515,131.030487 
	C40.756741,130.433334 42.282124,129.400696 43.857338,129.318069 
	C49.267986,129.034271 54.696079,129.083115 60.899719,129.345520 
	C82.854416,129.776001 104.026901,129.872559 125.199501,129.922836 
	C125.786064,129.924225 126.373802,129.429092 126.960991,129.165497 
	C141.755463,129.191849 156.550110,129.263016 171.344238,129.204681 
	C174.121567,129.193710 178.099243,129.493713 173.951385,124.158768 
	C172.180603,123.368530 170.888931,123.023735 169.597031,123.022850 
	C128.176712,122.994530 86.756363,122.991837 45.336063,123.031418 
	C43.904221,123.032784 42.472832,123.506828 41.041229,123.760567 
	C40.383373,121.589935 38.806576,119.231651 39.205757,117.276871 
	C45.020985,88.799866 60.445728,67.982994 88.069260,57.199978 
	C95.445145,54.320751 105.899872,62.128792 105.505028,70.100899 
	C105.041000,79.469864 115.644691,86.726654 125.898384,83.529358 
	C129.750793,82.328110 132.451660,82.931091 135.526703,85.109428 
	C151.521149,96.439743 167.612656,107.632973 183.649765,118.903252 
	C185.130020,119.943520 186.465317,121.190063 187.600113,122.994186 
	C187.254822,138.880188 187.177322,154.112808 187.099838,169.345444 
	C186.571426,169.844498 186.042999,170.343552 184.911682,170.565826 
	C183.656906,170.193192 183.005066,170.013611 182.353180,170.013412 
	C136.845383,169.999573 91.337593,169.993896 45.829834,170.031723 
	C44.567173,170.032776 43.304913,170.512970 42.042465,170.769745 
M51.402935,162.517410 
	C54.228291,164.727921 55.653709,163.587372 55.948536,160.459717 
	C56.145466,158.370575 55.985943,156.247849 55.985943,154.346237 
	C59.973896,153.796860 63.419289,153.561356 66.724319,152.752396 
	C68.098328,152.416077 69.172821,150.856049 70.383514,149.852478 
	C69.036911,148.964569 67.794205,147.678802 66.316498,147.292938 
	C64.601364,146.845062 62.587574,147.538284 60.874069,147.087540 
	C59.146606,146.633087 57.628429,145.383102 56.018559,144.481659 
	C57.709457,143.659851 59.329342,142.420654 61.108555,142.117935 
	C63.537125,141.704727 66.117142,142.223694 68.569481,141.886536 
	C69.492500,141.759674 70.662056,140.469650 70.921211,139.497208 
	C71.097504,138.835693 69.864456,137.039780 69.299805,137.056320 
	C63.245502,137.233429 57.198811,137.670807 50.486317,138.553040 
	C50.643505,146.368546 50.800697,154.184052 51.402935,162.517410 
M141.002060,157.101395 
	C141.053055,152.058517 141.104050,147.015625 141.624008,141.509872 
	C141.402802,140.342529 141.181580,139.175186 140.323715,137.549500 
	C137.180161,135.935074 136.022781,137.348953 136.000137,140.414581 
	C135.977066,143.536819 135.995041,146.659348 135.995041,151.268158 
	C133.954559,149.459946 132.690445,148.669083 131.873779,147.551300 
	C129.819733,144.739914 128.108215,141.670349 125.959511,138.940292 
	C125.193634,137.967209 123.564217,137.673782 122.328964,137.070129 
	C121.868050,138.219910 121.033775,139.361572 121.008614,140.520813 
	C120.875084,146.674423 120.785530,152.839386 121.052925,158.984207 
	C121.121925,160.569901 122.533134,162.097183 123.327782,163.651306 
	C124.206123,162.106857 125.557541,160.648468 125.857704,158.998825 
	C126.375801,156.151428 126.240662,153.185181 126.379601,150.268784 
	C126.882294,150.214828 127.384987,150.160873 127.887680,150.106934 
	C130.377960,153.771683 132.919327,157.403137 135.338211,161.114410 
	C136.660751,163.143585 138.052246,164.513809 141.227051,162.637650 
	C141.203201,161.101013 141.179367,159.564377 141.002060,157.101395 
M65.084480,90.098946 
	C62.305721,91.513992 59.134338,92.468468 56.826427,94.435860 
	C51.289070,99.156219 51.639854,107.190025 57.166779,111.883690 
	C63.333973,117.121078 71.982582,117.549438 78.642540,112.947357 
	C86.393822,107.591171 86.463326,97.471405 78.233215,92.862625 
	C74.710098,90.889717 70.070595,90.910423 65.084480,90.098946 
M175.725967,152.906662 
	C176.420944,141.079315 170.932755,135.566666 159.443588,136.948776 
	C158.115448,137.108551 156.047546,139.161301 155.981445,140.423279 
	C155.633926,147.057831 155.683670,153.725784 155.949493,160.367966 
	C155.995789,161.525101 157.555984,163.330673 158.719452,163.619888 
	C166.740509,165.613831 173.110825,161.724472 175.725967,152.906662 
M99.779007,108.426392 
	C106.000366,114.199081 112.902985,114.752579 118.684914,109.934273 
	C121.916054,107.241631 123.236481,103.884041 121.959648,99.776337 
	C120.059196,93.662445 111.773331,90.421623 104.956940,93.056633 
	C98.265518,95.643333 96.200348,100.995918 99.779007,108.426392 
M100.413559,155.356186 
	C98.597565,156.370102 96.230621,158.620728 95.092216,158.113586 
	C93.299034,157.314758 91.490128,154.785477 91.192444,152.766907 
	C90.592842,148.700897 91.197762,144.470917 90.882988,140.340805 
	C90.790833,139.131607 89.272064,138.031158 88.407173,136.880859 
	C87.607246,138.091583 86.200027,139.262589 86.117760,140.520233 
	C85.836418,144.821243 85.872757,149.159225 86.063110,153.470947 
	C86.325203,159.407898 90.251068,163.421570 95.646950,163.595917 
	C101.228676,163.776260 105.612396,159.699509 105.952263,153.662460 
	C106.194733,149.355499 106.201660,145.016312 105.953941,140.712204 
	C105.878914,139.408447 104.602684,138.173828 103.876656,136.907532 
	C102.930023,138.156830 101.283546,139.342621 101.163399,140.666901 
	C100.744446,145.284698 100.853523,149.950394 100.413559,155.356186 
M89.229057,89.225304 
	C91.179962,89.127846 93.227776,89.377937 95.063156,88.866165 
	C100.074837,87.468689 102.699608,82.698280 100.668465,78.580475 
	C98.603287,74.393684 94.718437,72.871002 90.322426,73.433563 
	C86.221565,73.958351 82.566422,75.677681 82.002167,80.503983 
	C81.439461,85.316902 84.227798,87.780701 89.229057,89.225304 
z"/>
<path fill="#E50021" opacity="1.000000" stroke="none" 
	d="
M42.496979,170.879852 
	C43.304913,170.512970 44.567173,170.032776 45.829834,170.031723 
	C91.337593,169.993896 136.845383,169.999573 182.353180,170.013412 
	C183.005066,170.013611 183.656906,170.193192 184.630981,170.542374 
	C179.977478,170.872559 175.001770,171.015244 170.026047,171.015945 
	C127.667862,171.021896 85.309677,171.002045 42.496979,170.879852 
z"/>
<path fill="#E50025" opacity="1.000000" stroke="none" 
	d="
M41.476181,123.944489 
	C42.472832,123.506828 43.904221,123.032784 45.336063,123.031418 
	C86.756363,122.991837 128.176712,122.994530 169.597031,123.022850 
	C170.888931,123.023735 172.180603,123.368530 173.708069,123.904617 
	C129.932892,124.213623 85.922012,124.171013 41.476181,123.944489 
z"/>
<path fill="#E40012" opacity="1.000000" stroke="none" 
	d="
M126.499153,129.098831 
	C126.373802,129.429092 125.786064,129.924225 125.199501,129.922836 
	C104.026901,129.872559 82.854416,129.776001 61.365124,129.425644 
	C82.711327,129.121017 104.374321,129.076599 126.499153,129.098831 
z"/>
<path fill="#E50021" opacity="1.000000" stroke="none" 
	d="
M187.447601,169.055847 
	C187.177322,154.112808 187.254822,138.880188 187.605209,123.337448 
	C187.850525,138.273636 187.822952,153.519943 187.447601,169.055847 
z"/>
<path fill="#E5001A" opacity="1.000000" stroke="none" 
	d="
M39.082790,131.482758 
	C39.472496,134.419678 39.951775,137.808426 39.958412,141.198120 
	C39.975483,149.913971 39.783043,158.630234 39.402126,167.656219 
	C39.072300,155.955750 39.014683,143.945404 39.082790,131.482758 
z"/>
<path fill="#FEF3F5" opacity="1.000000" stroke="none" 
	d="
M65.511414,90.062119 
	C70.070595,90.910423 74.710098,90.889717 78.233215,92.862625 
	C86.463326,97.471405 86.393822,107.591171 78.642540,112.947357 
	C71.982582,117.549438 63.333973,117.121078 57.166779,111.883690 
	C51.639854,107.190025 51.289070,99.156219 56.826427,94.435860 
	C59.134338,92.468468 62.305721,91.513992 65.511414,90.062119 
M71.028618,111.000168 
	C77.196205,109.131958 79.976738,106.267731 79.507721,102.265877 
	C79.041862,98.290970 74.647156,94.763618 70.124023,94.938477 
	C68.539528,94.999733 66.939400,95.942665 65.406563,95.806389 
	C61.287418,95.440201 59.201527,97.912567 58.144543,101.128258 
	C57.035114,104.503525 58.459934,107.621857 61.681004,109.045532 
	C64.301353,110.203705 67.339722,110.416115 71.028618,111.000168 
z"/>
<path fill="#FEF9FA" opacity="1.000000" stroke="none" 
	d="
M141.155045,141.972748 
	C141.104050,147.015625 141.053055,152.058517 141.009613,157.970200 
	C140.861877,160.194977 140.706573,161.550964 140.551270,162.906937 
	C138.052246,164.513809 136.660751,163.143585 135.338211,161.114410 
	C132.919327,157.403137 130.377960,153.771683 127.887680,150.106934 
	C127.384987,150.160873 126.882294,150.214828 126.379601,150.268784 
	C126.240662,153.185181 126.375801,156.151428 125.857704,158.998825 
	C125.557541,160.648468 124.206123,162.106857 123.327782,163.651306 
	C122.533134,162.097183 121.121925,160.569901 121.052925,158.984207 
	C120.785530,152.839386 120.875084,146.674423 121.008614,140.520813 
	C121.033775,139.361572 121.868050,138.219910 122.328964,137.070129 
	C123.564217,137.673782 125.193634,137.967209 125.959511,138.940292 
	C128.108215,141.670349 129.819733,144.739914 131.873779,147.551300 
	C132.690445,148.669083 133.954559,149.459946 135.995041,151.268158 
	C135.995041,146.659348 135.977066,143.536819 136.000137,140.414581 
	C136.022781,137.348953 137.180161,135.935074 140.637695,138.176453 
	C141.019470,139.859863 141.087265,140.916306 141.155045,141.972748 
z"/>
<path fill="#FEF4F6" opacity="1.000000" stroke="none" 
	d="
M175.618286,153.303131 
	C173.110825,161.724472 166.740509,165.613831 158.719452,163.619888 
	C157.555984,163.330673 155.995789,161.525101 155.949493,160.367966 
	C155.683670,153.725784 155.633926,147.057831 155.981445,140.423279 
	C156.047546,139.161301 158.115448,137.108551 159.443588,136.948776 
	C170.932755,135.566666 176.420944,141.079315 175.618286,153.303131 
M170.219604,151.298080 
	C169.988983,149.352997 170.407562,146.884293 169.366180,145.593109 
	C168.012375,143.914612 165.498260,143.171982 163.483536,142.026550 
	C162.634796,143.678467 161.374954,145.251846 161.040527,147.002045 
	C160.614655,149.230896 160.724350,151.630096 161.015091,153.903168 
	C161.199219,155.342651 162.014709,157.773788 162.756271,157.855255 
	C164.517609,158.048721 166.712646,157.532776 168.139999,156.491486 
	C169.258865,155.675232 169.489868,153.641953 170.219604,151.298080 
z"/>
<path fill="#FDF3F4" opacity="1.000000" stroke="none" 
	d="
M51.150036,138.036850 
	C57.198811,137.670807 63.245502,137.233429 69.299805,137.056320 
	C69.864456,137.039780 71.097504,138.835693 70.921211,139.497208 
	C70.662056,140.469650 69.492500,141.759674 68.569481,141.886536 
	C66.117142,142.223694 63.537125,141.704727 61.108555,142.117935 
	C59.329342,142.420654 57.709457,143.659851 56.018559,144.481659 
	C57.628429,145.383102 59.146606,146.633087 60.874069,147.087540 
	C62.587574,147.538284 64.601364,146.845062 66.316498,147.292938 
	C67.794205,147.678802 69.036911,148.964569 70.383514,149.852478 
	C69.172821,150.856049 68.098328,152.416077 66.724319,152.752396 
	C63.419289,153.561356 59.973896,153.796860 55.985943,154.346237 
	C55.985943,156.247849 56.145466,158.370575 55.948536,160.459717 
	C55.653709,163.587372 54.228291,164.727921 51.215076,161.790405 
	C51.068157,153.387894 51.109097,145.712372 51.150036,138.036850 
z"/>
<path fill="#FDF3F4" opacity="1.000000" stroke="none" 
	d="
M99.514236,108.137939 
	C96.200348,100.995918 98.265518,95.643333 104.956940,93.056633 
	C111.773331,90.421623 120.059196,93.662445 121.959648,99.776337 
	C123.236481,103.884041 121.916054,107.241631 118.684914,109.934273 
	C112.902985,114.752579 106.000366,114.199081 99.514236,108.137939 
M107.136330,107.766045 
	C109.099007,107.717262 111.526726,108.368729 112.911186,107.449287 
	C114.805977,106.190933 117.485718,103.072380 117.008476,101.942650 
	C116.122292,99.844856 113.229034,97.382355 111.109787,97.324364 
	C108.449341,97.251541 104.800041,98.761169 103.273788,100.835800 
	C101.500244,103.246574 103.255989,106.161484 107.136330,107.766045 
z"/>
<path fill="#FEF8F9" opacity="1.000000" stroke="none" 
	d="
M100.587730,154.977036 
	C100.853523,149.950394 100.744446,145.284698 101.163399,140.666901 
	C101.283546,139.342621 102.930023,138.156830 103.876656,136.907532 
	C104.602684,138.173828 105.878914,139.408447 105.953941,140.712204 
	C106.201660,145.016312 106.194733,149.355499 105.952263,153.662460 
	C105.612396,159.699509 101.228676,163.776260 95.646950,163.595917 
	C90.251068,163.421570 86.325203,159.407898 86.063110,153.470947 
	C85.872757,149.159225 85.836418,144.821243 86.117760,140.520233 
	C86.200027,139.262589 87.607246,138.091583 88.407166,136.880859 
	C89.272064,138.031158 90.790833,139.131607 90.882988,140.340805 
	C91.197762,144.470917 90.592842,148.700897 91.192444,152.766907 
	C91.490128,154.785477 93.299034,157.314758 95.092216,158.113586 
	C96.230621,158.620728 98.597565,156.370102 100.587730,154.977036 
z"/>
<path fill="#FDF3F4" opacity="1.000000" stroke="none" 
	d="
M88.858704,89.125916 
	C84.227798,87.780701 81.439461,85.316902 82.002167,80.503983 
	C82.566422,75.677681 86.221565,73.958351 90.322426,73.433563 
	C94.718437,72.871002 98.603287,74.393684 100.668465,78.580475 
	C102.699608,82.698280 100.074837,87.468689 95.063156,88.866165 
	C93.227776,89.377937 91.179962,89.127846 88.858704,89.125916 
M87.304138,82.939751 
	C88.148170,83.400551 89.066742,84.343208 89.821434,84.226463 
	C91.652756,83.943184 93.521118,83.365646 95.117081,82.455292 
	C95.536377,82.216118 95.229630,79.429878 94.893219,79.350410 
	C92.955574,78.892708 90.835518,78.530319 88.932716,78.911514 
	C88.087349,79.080879 87.605888,81.066643 87.304138,82.939751 
z"/>
<path fill="#E40016" opacity="1.000000" stroke="none" 
	d="
M50.818176,138.294952 
	C51.109097,145.712372 51.068157,153.387894 50.992554,161.531494 
	C50.800697,154.184052 50.643505,146.368546 50.818176,138.294952 
z"/>
<path fill="#E50025" opacity="1.000000" stroke="none" 
	d="
M140.889160,162.772293 
	C140.706573,161.550964 140.861877,160.194977 141.086365,158.433380 
	C141.179367,159.564377 141.203201,161.101013 140.889160,162.772293 
z"/>
<path fill="#E50025" opacity="1.000000" stroke="none" 
	d="
M141.389526,141.741302 
	C141.087265,140.916306 141.019470,139.859863 140.956024,138.405640 
	C141.181580,139.175186 141.402802,140.342529 141.389526,141.741302 
z"/>
<path fill="#E60534" opacity="1.000000" stroke="none" 
	d="
M70.610672,111.024048 
	C67.339722,110.416115 64.301353,110.203705 61.681004,109.045532 
	C58.459934,107.621857 57.035114,104.503525 58.144543,101.128258 
	C59.201527,97.912567 61.287418,95.440201 65.406563,95.806389 
	C66.939400,95.942665 68.539528,94.999733 70.124023,94.938477 
	C74.647156,94.763618 79.041862,98.290970 79.507721,102.265877 
	C79.976738,106.267731 77.196205,109.131958 70.610672,111.024048 
z"/>
<path fill="#E60334" opacity="1.000000" stroke="none" 
	d="
M170.167450,151.723724 
	C169.489868,153.641953 169.258865,155.675232 168.139999,156.491486 
	C166.712646,157.532776 164.517609,158.048721 162.756271,157.855255 
	C162.014709,157.773788 161.199219,155.342651 161.015091,153.903168 
	C160.724350,151.630096 160.614655,149.230896 161.040527,147.002045 
	C161.374954,145.251846 162.634796,143.678467 163.483536,142.026550 
	C165.498260,143.171982 168.012375,143.914612 169.366180,145.593109 
	C170.407562,146.884293 169.988983,149.352997 170.167450,151.723724 
z"/>
<path fill="#E60231" opacity="1.000000" stroke="none" 
	d="
M106.771408,107.578308 
	C103.255989,106.161484 101.500244,103.246574 103.273788,100.835800 
	C104.800041,98.761169 108.449341,97.251541 111.109787,97.324364 
	C113.229034,97.382355 116.122292,99.844856 117.008476,101.942650 
	C117.485718,103.072380 114.805977,106.190933 112.911186,107.449287 
	C111.526726,108.368729 109.099007,107.717262 106.771408,107.578308 
z"/>
<path fill="#E70E38" opacity="1.000000" stroke="none" 
	d="
M87.131699,82.583839 
	C87.605888,81.066643 88.087349,79.080879 88.932716,78.911514 
	C90.835518,78.530319 92.955574,78.892708 94.893219,79.350410 
	C95.229630,79.429878 95.536377,82.216118 95.117081,82.455292 
	C93.521118,83.365646 91.652756,83.943184 89.821434,84.226463 
	C89.066742,84.343208 88.148170,83.400551 87.131699,82.583839 
z"/>
</svg>