<svg xmlns="http://www.w3.org/2000/svg" viewBox="0 0 24 24" fill="#5865F2">
    <path d="M20.32 4.37A19.8 19.8 0 0 0 15.45 3a13.6 13.6 0 0 0-.62 1.27 18.27 18.27 0 0 0-5.67 0A13.4 13.4 0 0 0 8.55 3a19.74 19.74 0 0 0-4.88 1.37C.55 9.06-.3 13.64.12 18.15a19.9 19.9 0 0 0 6.07 3.07 14.7 14.7 0 0 0 1.3-2.11 12.9 12.9 0 0 1-2.05-.98c.17-.13.34-.26.5-.4a14.2 14.2 0 0 0 12.12 0c.16.14.33.27.5.4a12.9 12.9 0 0 1-2.05.98 14.7 14.7 0 0 0 1.3 2.11 19.86 19.86 0 0 0 6.07-3.07c.5-5.23-.85-9.77-3.56-13.78zM8.02 15.33c-1.18 0-2.16-1.08-2.16-2.42s.96-2.41 2.16-2.41 2.18 1.09 2.16 2.42c0 1.33-.97 2.41-2.16 2.41zm7.96 0c-1.18 0-2.16-1.08-2.16-2.42s.96-2.41 2.16-2.41 2.18 1.09 2.16 2.42c0 1.33-.96 2.41-2.16 2.41z" />
</svg>
