<svg version="1.1" id="Layer_1" xmlns="http://www.w3.org/2000/svg" xmlns:xlink="http://www.w3.org/1999/xlink" x="0px" y="0px"
	 width="100%" viewBox="0 0 225 225" enable-background="new 0 0 225 225" xml:space="preserve">
<path fill="#57058B" opacity="1.000000" stroke="none" 
	d="
M154.000000,226.000000 
	C102.666672,226.000000 51.833340,226.000000 1.000007,226.000000 
	C1.000005,151.000000 1.000005,76.000015 1.000002,1.000017 
	C75.999992,1.000011 150.999985,1.000011 225.999969,1.000006 
	C225.999985,75.999985 225.999985,150.999969 226.000000,225.999969 
	C202.166672,226.000000 178.333328,226.000000 154.000000,226.000000 
M67.610657,139.355942 
	C68.733330,139.569489 69.855766,139.968094 70.978699,139.969498 
	C98.904510,140.004379 126.830391,140.011810 154.756119,139.955429 
	C156.172119,139.952560 157.586868,139.335632 159.220398,138.088745 
	C159.234787,125.642120 159.288315,113.195389 159.254227,100.748894 
	C159.205154,82.833786 159.092392,64.918854 158.351578,46.492271 
	C157.546234,46.332127 156.741043,46.032757 155.935547,46.031979 
	C127.885063,46.004997 99.834526,45.994728 71.784096,46.040581 
	C70.520622,46.042645 69.258034,46.589211 67.641396,47.076447 
	C67.641396,47.076447 67.238464,47.055302 66.650177,47.645538 
	C66.436279,48.601398 66.036690,49.557026 66.035484,50.513153 
	C65.999969,78.633438 65.986755,106.753807 66.053917,134.873978 
	C66.057213,136.254883 66.818130,137.633972 66.990349,139.017349 
	C66.990349,139.017349 66.985146,138.781464 67.610657,139.355942 
M67.983994,179.130630 
	C69.906403,179.130630 71.828819,179.130630 74.314178,179.130630 
	C74.314178,173.078064 74.314178,167.549515 74.314178,162.020950 
	C79.032570,166.245468 82.798851,170.777832 86.116432,175.617783 
	C88.314995,178.825195 90.877472,179.953568 94.623718,178.870834 
	C94.623718,168.675232 94.623718,158.451599 94.623718,148.298767 
	C92.336365,148.298767 90.402473,148.298767 88.062851,148.298767 
	C88.062851,152.670639 88.131081,156.803345 88.004608,160.930084 
	C87.979668,161.743988 87.362968,162.982056 86.729393,163.206528 
	C86.134956,163.417130 84.910187,162.747330 84.389633,162.114075 
	C81.962105,159.160965 79.344810,156.283020 77.435081,153.005478 
	C75.026176,148.871201 71.855049,147.182480 66.637886,148.653641 
	C66.425255,156.711960 66.130257,164.769547 66.057159,172.829132 
	C66.038582,174.877472 66.725388,176.932205 67.983994,179.130630 
M149.018951,179.598694 
	C154.825058,178.262619 158.661133,174.796677 159.012390,168.758896 
	C159.405914,161.994354 159.102783,155.189270 159.102783,148.322678 
	C156.780075,148.322678 154.703079,148.322678 152.198990,148.322678 
	C152.198990,151.558945 152.200134,154.520111 152.198669,157.481262 
	C152.197174,160.473404 152.502045,163.509949 152.080780,166.441986 
	C151.803207,168.373901 150.960587,171.140366 149.540146,171.835602 
	C143.005096,175.034119 139.105667,172.303238 139.031174,164.907257 
	C138.974915,159.320801 139.020035,153.733322 139.020035,148.284897 
	C136.357559,148.284897 134.417068,148.284897 132.021698,148.284897 
	C132.021698,154.460129 131.904083,160.408661 132.048477,166.350815 
	C132.281357,175.934036 138.807404,181.261490 149.018951,179.598694 
M107.010628,149.050842 
	C104.437286,148.631714 101.863937,148.212601 98.000160,147.583313 
	C101.718597,153.462006 105.259521,157.788620 107.354393,162.728470 
	C109.462364,167.699188 110.132172,173.279800 111.504227,178.887726 
	C112.791862,178.887726 114.840729,178.887726 115.881630,178.887726 
	C117.304367,173.170746 117.951103,167.728912 120.048988,162.920151 
	C122.265350,157.839813 125.864616,153.362793 128.924438,148.519897 
	C123.725800,147.023468 120.261620,148.153961 118.201035,153.065750 
	C117.178322,155.503555 115.383690,157.617538 113.714539,160.227936 
	C111.344849,156.274567 109.380371,152.997223 107.010628,149.050842 
z"/>
<path fill="#FEFDFE" opacity="1.000000" stroke="none" 
	d="
M67.238464,47.055302 
	C67.238464,47.055302 67.641396,47.076447 68.286118,47.030754 
	C98.956161,46.991322 128.981476,46.997585 159.006790,47.003849 
	C159.092392,64.918854 159.205154,82.833786 159.254227,100.748894 
	C159.288315,113.195389 159.234787,125.642120 158.642563,138.545929 
	C152.920990,139.003006 147.777237,139.014893 142.633530,139.000763 
	C117.417397,138.931473 92.201271,138.855240 66.985146,138.781464 
	C66.985146,138.781464 66.990349,139.017349 67.052216,138.542099 
	C67.155540,107.729668 67.196999,77.392487 67.238464,47.055302 
M107.207764,93.932129 
	C107.474991,93.726250 107.742226,93.520363 108.882889,93.366951 
	C109.148842,93.247215 109.414803,93.127480 109.858185,92.729553 
	C109.899788,92.353386 109.740654,92.102715 109.133469,91.137779 
	C109.461075,87.869560 109.788689,84.601341 110.592964,81.038895 
	C110.708847,80.695473 110.824738,80.352051 111.313774,79.689705 
	C111.547943,79.461006 111.776817,79.227127 112.715332,79.241219 
	C111.936035,83.519958 111.156738,87.798706 110.231476,92.878899 
	C112.297699,91.894463 113.129990,91.497925 114.011948,91.956123 
	C114.778702,93.004478 115.475739,94.900826 116.322952,94.970482 
	C125.120232,95.693748 132.557388,86.717659 130.443253,77.764229 
	C128.564468,79.230911 126.780991,80.623192 124.080513,82.174393 
	C123.280128,82.283195 122.479744,82.391998 120.976212,82.596390 
	C127.500069,77.216393 127.875687,75.270737 124.142128,67.968384 
	C123.018028,69.532684 122.190948,71.241020 120.859474,72.336037 
	C120.004951,73.038803 118.407410,72.838104 117.795296,72.640694 
	C117.183365,69.259857 116.571442,65.879021 115.847664,61.880260 
	C112.157402,66.565765 109.280540,70.405159 106.200798,74.074272 
	C103.343872,77.477928 101.545685,81.141563 101.870972,86.171547 
	C101.601845,86.438286 101.332710,86.705025 100.789619,86.339813 
	C100.682396,85.449921 100.575180,84.560028 100.785759,82.698380 
	C100.800705,82.357903 100.815651,82.017433 100.861275,80.903671 
	C100.810028,77.341339 105.408928,73.898666 100.874062,70.002739 
	C98.956749,73.662010 96.741196,77.138847 95.272224,80.906738 
	C93.820290,84.630928 93.769997,88.997856 97.293312,91.416801 
	C99.846291,93.169571 103.540802,93.259613 107.207764,93.932129 
M113.868774,112.520828 
	C114.221298,109.440544 114.573822,106.360260 114.944237,103.123672 
	C112.311653,103.123672 110.075348,103.123672 107.365250,103.123672 
	C108.364220,111.862679 109.326820,120.283478 110.289413,128.704269 
	C110.766129,128.673447 111.242844,128.642609 111.719566,128.611771 
	C112.408455,123.545715 113.097351,118.479660 113.868774,112.520828 
M106.282631,97.055504 
	C105.689346,98.169022 105.096069,99.282539 104.306122,100.765167 
	C118.062141,101.385109 118.062141,101.385109 117.069588,97.047539 
	C113.791435,97.047539 110.468620,97.047539 106.282631,97.055504 
z"/>
<path fill="#F9F7F9" opacity="1.000000" stroke="none" 
	d="
M67.225151,148.067734 
	C71.855049,147.182480 75.026176,148.871201 77.435081,153.005478 
	C79.344810,156.283020 81.962105,159.160965 84.389633,162.114075 
	C84.910187,162.747330 86.134956,163.417130 86.729393,163.206528 
	C87.362968,162.982056 87.979668,161.743988 88.004608,160.930084 
	C88.131081,156.803345 88.062851,152.670639 88.062851,148.298767 
	C90.402473,148.298767 92.336365,148.298767 94.623718,148.298767 
	C94.623718,158.451599 94.623718,168.675232 94.623718,178.870834 
	C90.877472,179.953568 88.314995,178.825195 86.116432,175.617783 
	C82.798851,170.777832 79.032570,166.245468 74.314178,162.020950 
	C74.314178,167.549515 74.314178,173.078064 74.314178,179.130630 
	C71.828819,179.130630 69.906403,179.130630 67.533737,178.589569 
	C67.130699,168.054932 67.177925,158.061325 67.225151,148.067734 
z"/>
<path fill="#F8F6F9" opacity="1.000000" stroke="none" 
	d="
M148.636703,179.677887 
	C138.807404,181.261490 132.281357,175.934036 132.048477,166.350815 
	C131.904083,160.408661 132.021698,154.460129 132.021698,148.284897 
	C134.417068,148.284897 136.357559,148.284897 139.020035,148.284897 
	C139.020035,153.733322 138.974915,159.320801 139.031174,164.907257 
	C139.105667,172.303238 143.005096,175.034119 149.540146,171.835602 
	C150.960587,171.140366 151.803207,168.373901 152.080780,166.441986 
	C152.502045,163.509949 152.197174,160.473404 152.198669,157.481262 
	C152.200134,154.520111 152.198990,151.558945 152.198990,148.322678 
	C154.703079,148.322678 156.780075,148.322678 159.102783,148.322678 
	C159.102783,155.189270 159.405914,161.994354 159.012390,168.758896 
	C158.661133,174.796677 154.825058,178.262619 148.636703,179.677887 
z"/>
<path fill="#F8F5F8" opacity="1.000000" stroke="none" 
	d="
M107.213264,149.385361 
	C109.380371,152.997223 111.344849,156.274567 113.714539,160.227936 
	C115.383690,157.617538 117.178322,155.503555 118.201035,153.065750 
	C120.261620,148.153961 123.725800,147.023468 128.924438,148.519897 
	C125.864616,153.362793 122.265350,157.839813 120.048988,162.920151 
	C117.951103,167.728912 117.304367,173.170746 115.881630,178.887726 
	C114.840729,178.887726 112.791862,178.887726 111.504227,178.887726 
	C110.132172,173.279800 109.462364,167.699188 107.354393,162.728470 
	C105.259521,157.788620 101.718597,153.462006 98.000160,147.583313 
	C101.863937,148.212601 104.437286,148.631714 107.213264,149.385361 
z"/>
<path fill="#430078" opacity="1.000000" stroke="none" 
	d="
M66.944321,47.350418 
	C67.196999,77.392487 67.155540,107.729668 67.170174,138.540375 
	C66.818130,137.633972 66.057213,136.254883 66.053917,134.873978 
	C65.986755,106.753807 65.999969,78.633438 66.035484,50.513153 
	C66.036690,49.557026 66.436279,48.601398 66.944321,47.350418 
z"/>
<path fill="#46007E" opacity="1.000000" stroke="none" 
	d="
M67.297897,139.068695 
	C92.201271,138.855240 117.417397,138.931473 142.633530,139.000763 
	C147.777237,139.014893 152.920990,139.003006 158.533463,139.003860 
	C157.586868,139.335632 156.172119,139.952560 154.756119,139.955429 
	C126.830391,140.011810 98.904510,140.004379 70.978699,139.969498 
	C69.855766,139.968094 68.733330,139.569489 67.297897,139.068695 
z"/>
<path fill="#3B0077" opacity="1.000000" stroke="none" 
	d="
M158.679184,46.748062 
	C128.981476,46.997585 98.956161,46.991322 68.462936,46.933609 
	C69.258034,46.589211 70.520622,46.042645 71.784096,46.040581 
	C99.834526,45.994728 127.885063,46.004997 155.935547,46.031979 
	C156.741043,46.032757 157.546234,46.332127 158.679184,46.748062 
z"/>
<path fill="#430078" opacity="1.000000" stroke="none" 
	d="
M66.931519,148.360687 
	C67.177925,158.061325 67.130699,168.054932 67.085777,178.516266 
	C66.725388,176.932205 66.038582,174.877472 66.057159,172.829132 
	C66.130257,164.769547 66.425255,156.711960 66.931519,148.360687 
z"/>
<path fill="#580D89" opacity="1.000000" stroke="none" 
	d="
M113.962280,91.101387 
	C113.129990,91.497925 112.297699,91.894463 110.231476,92.878899 
	C111.156738,87.798706 111.936035,83.519958 112.370926,78.753082 
	C113.731987,76.524086 115.437454,74.783234 117.142929,73.042381 
	C118.407410,72.838104 120.004951,73.038803 120.859474,72.336037 
	C122.190948,71.241020 123.018028,69.532684 124.142128,67.968384 
	C127.875687,75.270737 127.500069,77.216393 120.976212,82.596390 
	C122.479744,82.391998 123.280128,82.283195 124.320816,82.348656 
	C121.028168,85.382408 117.495224,88.241898 113.962280,91.101387 
M121.916611,82.493172 
	C120.746284,82.664688 119.575966,82.836205 118.405640,83.007721 
	C118.476120,83.363800 118.546608,83.719872 118.617088,84.075951 
	C119.618439,83.829758 120.619781,83.583557 121.916611,82.493172 
z"/>
<path fill="#5A0F8B" opacity="1.000000" stroke="none" 
	d="
M117.469116,72.841537 
	C115.437454,74.783234 113.731987,76.524086 112.013458,78.626511 
	C111.776817,79.227127 111.547943,79.461006 110.940369,80.036453 
	C110.416748,80.699844 110.266525,81.016487 110.116302,81.333122 
	C109.788689,84.601341 109.461075,87.869560 109.246971,91.840019 
	C109.467232,92.697411 109.573997,92.852570 109.680756,93.007736 
	C109.414803,93.127480 109.148842,93.247215 108.226898,93.070633 
	C105.782349,90.417442 103.993805,88.060570 102.205254,85.703705 
	C101.545685,81.141563 103.343872,77.477928 106.200798,74.074272 
	C109.280540,70.405159 112.157402,66.565765 115.847664,61.880260 
	C116.571442,65.879021 117.183365,69.259857 117.469116,72.841537 
z"/>
<path fill="#5A0F8B" opacity="1.000000" stroke="none" 
	d="
M113.987122,91.528755 
	C117.495224,88.241898 121.028168,85.382408 124.779312,82.269196 
	C126.780991,80.623192 128.564468,79.230911 130.443253,77.764229 
	C132.557388,86.717659 125.120232,95.693748 116.322952,94.970482 
	C115.475739,94.900826 114.778702,93.004478 113.987122,91.528755 
z"/>
<path fill="#580D89" opacity="1.000000" stroke="none" 
	d="
M100.467957,83.670135 
	C100.575180,84.560028 100.682396,85.449921 100.906784,87.008347 
	C102.924721,89.814949 104.825500,91.953033 106.726280,94.091110 
	C103.540802,93.259613 99.846291,93.169571 97.293312,91.416801 
	C93.769997,88.997856 93.820290,84.630928 95.272224,80.906738 
	C96.741196,77.138847 98.956749,73.662010 100.874062,70.002739 
	C105.408928,73.898666 100.810028,77.341339 100.655334,81.489609 
	C100.455582,82.607071 100.461769,83.138603 100.467957,83.670135 
z"/>
<path fill="#5A0F8B" opacity="1.000000" stroke="none" 
	d="
M113.827515,112.967224 
	C113.097351,118.479660 112.408455,123.545715 111.719566,128.611771 
	C111.242844,128.642609 110.766129,128.673447 110.289413,128.704269 
	C109.326820,120.283478 108.364220,111.862679 107.365250,103.123672 
	C110.075348,103.123672 112.311653,103.123672 114.944237,103.123672 
	C114.573822,106.360260 114.221298,109.440544 113.827515,112.967224 
z"/>
<path fill="#601E8D" opacity="1.000000" stroke="none" 
	d="
M106.714218,97.051521 
	C110.468620,97.047539 113.791435,97.047539 117.069588,97.047539 
	C118.062141,101.385109 118.062141,101.385109 104.306122,100.765167 
	C105.096069,99.282539 105.689346,98.169022 106.714218,97.051521 
z"/>
<path fill="#E2D7E6" opacity="1.000000" stroke="none" 
	d="
M106.967026,94.011620 
	C104.825500,91.953033 102.924721,89.814949 101.043762,87.324318 
	C101.332710,86.705025 101.601845,86.438286 102.038116,85.937622 
	C103.993805,88.060570 105.782349,90.417442 107.790176,93.044395 
	C107.742226,93.520363 107.474991,93.726250 106.967026,94.011620 
z"/>
<path fill="#E2D7E6" opacity="1.000000" stroke="none" 
	d="
M109.769470,92.868645 
	C109.573997,92.852570 109.467232,92.697411 109.370621,92.259895 
	C109.740654,92.102715 109.899788,92.353386 109.769470,92.868645 
z"/>
<path fill="#E2D7E6" opacity="1.000000" stroke="none" 
	d="
M100.626862,83.184258 
	C100.461769,83.138603 100.455582,82.607071 100.639999,81.876251 
	C100.815651,82.017433 100.800705,82.357903 100.626862,83.184258 
z"/>
<path fill="#580D89" opacity="1.000000" stroke="none" 
	d="
M110.354630,81.186005 
	C110.266525,81.016487 110.416748,80.699844 110.753792,80.195915 
	C110.824738,80.352051 110.708847,80.695473 110.354630,81.186005 
z"/>
<path fill="#FEFDFE" opacity="1.000000" stroke="none" 
	d="
M121.768867,82.915268 
	C120.619781,83.583557 119.618439,83.829758 118.617088,84.075951 
	C118.546608,83.719872 118.476120,83.363800 118.405640,83.007721 
	C119.575966,82.836205 120.746284,82.664688 121.768867,82.915268 
z"/>
</svg>