<svg version="1.1" id="Layer_1" xmlns="http://www.w3.org/2000/svg" xmlns:xlink="http://www.w3.org/1999/xlink" x="0px" y="0px"
	 width="100%" viewBox="0 0 225 225" enable-background="new 0 0 225 225" xml:space="preserve">
<path fill="#58108D" opacity="1.000000" stroke="none" 
	d="
M110.000000,226.000000 
	C73.333336,226.000000 37.166672,226.000000 1.000005,226.000000 
	C1.000003,151.000000 1.000003,76.000015 1.000002,1.000015 
	C75.999992,1.000010 150.999985,1.000010 225.999969,1.000005 
	C225.999985,75.999985 225.999985,150.999969 226.000000,225.999969 
	C187.500000,226.000000 149.000000,226.000000 110.000000,226.000000 
M135.466888,147.942383 
	C136.741089,147.857162 138.015305,147.771927 139.384460,147.680359 
	C139.571609,143.919449 139.743607,140.463379 140.693573,137.009872 
	C141.471542,137.007782 142.249512,137.005692 143.228287,137.866241 
	C143.244461,139.023605 143.258850,140.180984 143.277100,141.338318 
	C143.376144,147.622803 144.276077,148.385605 151.453522,147.458176 
	C150.653366,146.180359 149.640533,145.240479 149.478851,144.171829 
	C149.069366,141.465179 148.784271,138.680298 148.999329,135.970367 
	C149.076004,135.003906 150.735504,134.163025 151.672516,133.264832 
	C150.534210,132.616791 149.395920,131.968765 148.321182,131.356918 
	C148.321182,129.311523 148.321182,127.237617 148.321182,125.171974 
	C150.110306,125.004433 151.585739,124.866264 153.795975,125.566483 
	C153.419479,132.924545 153.042969,140.282623 152.647614,148.009018 
	C155.065460,147.871033 156.624100,147.782074 157.924942,147.707825 
	C159.695602,143.722137 156.771530,138.927826 161.870819,136.088409 
	C161.870819,139.944946 161.870819,143.801468 161.870819,148.031174 
	C163.956451,147.821976 165.326981,147.684494 166.908783,147.525833 
	C166.908783,143.482895 167.164261,139.812515 166.787125,136.208313 
	C166.629059,134.697540 164.917023,131.998260 164.274628,132.101395 
	C158.759323,132.986801 158.226639,129.306488 158.059860,126.044151 
	C156.053360,125.563225 154.532364,125.198669 153.213593,124.184074 
	C154.055634,122.546234 155.874496,119.696426 155.584702,119.462860 
	C153.326080,117.642456 150.661835,116.325340 148.578018,115.116707 
	C151.774643,114.836502 154.449326,113.012634 154.840439,108.616974 
	C154.889771,108.062340 156.211197,107.620888 157.104752,108.119537 
	C157.022522,109.113655 156.907791,110.106339 156.863861,111.102142 
	C156.697281,114.879684 157.632156,118.192268 161.584396,119.510704 
	C165.438660,120.796448 168.369568,119.229683 170.950272,116.183716 
	C171.615311,117.118263 172.280365,118.052811 173.432739,119.493439 
	C174.991516,119.327202 176.550293,119.160973 178.881195,118.998627 
	C179.653351,119.002190 180.425491,119.005753 181.810516,119.341591 
	C183.698456,118.825775 185.586395,118.309952 187.474335,117.794136 
	C187.487289,117.281906 187.500244,116.769676 187.513199,116.257446 
	C189.111038,117.266098 190.640900,118.956444 192.322601,119.124130 
	C194.865250,119.377670 197.544205,118.688072 200.070755,118.034233 
	C200.327927,117.967674 199.939377,115.405937 199.976913,113.554268 
	C199.976913,113.554268 200.044647,113.093895 200.779236,112.932579 
	C200.483963,109.713364 200.188690,106.494156 199.845978,102.757713 
	C196.442337,103.318855 194.199417,103.281349 192.339417,104.106712 
	C190.372284,104.979614 188.769714,106.674065 186.439621,108.440468 
	C186.208633,103.452568 183.235687,102.879463 179.815079,103.148293 
	C177.541122,103.326996 175.282913,103.706284 172.820755,104.207512 
	C172.647018,104.465820 172.664764,104.723511 173.022034,105.652222 
	C172.971069,106.105049 172.920105,106.557869 172.287704,107.158310 
	C171.815628,107.514137 171.343536,107.869965 170.348160,107.756470 
	C166.368347,101.767097 162.653381,101.649551 156.351669,106.743156 
	C156.192902,105.678207 156.034134,104.613258 155.878143,103.566856 
	C151.749817,103.748482 147.984436,103.914139 143.487259,104.161598 
	C142.046921,104.442772 140.606598,104.723938 138.640213,104.493233 
	C134.534180,104.174477 130.428131,103.855721 126.172821,103.525375 
	C126.172821,108.292252 126.318733,112.117401 126.132835,115.926369 
	C125.936844,119.942200 127.763153,120.327957 131.429626,119.042427 
	C131.429626,115.612671 131.429626,112.260979 131.429626,108.909294 
	C131.897034,108.825882 132.364456,108.742462 132.831863,108.659050 
	C133.256500,109.976166 133.730667,111.279747 134.095001,112.613342 
	C134.762772,115.057686 135.365738,117.519730 136.503586,120.399277 
	C137.958832,120.942451 139.414093,121.485619 141.114212,122.673759 
	C142.868271,124.010468 144.622345,125.347176 145.681671,126.154449 
	C144.857452,127.329399 144.098312,128.476257 143.270599,129.571304 
	C142.588638,130.473541 141.825409,131.314362 140.750473,131.736816 
	C140.471100,131.485138 140.191711,131.233475 139.670197,130.252319 
	C138.359100,129.365082 137.048004,128.477829 135.110458,127.166656 
	C134.733170,130.449814 134.530838,132.210464 133.377930,134.012436 
	C132.745041,134.053711 132.112167,134.094986 131.034836,133.651566 
	C126.780617,129.749527 122.979774,131.897049 119.208702,134.196228 
	C120.189026,135.824249 121.015785,137.197250 121.835999,138.559357 
	C117.104729,144.074905 117.104729,144.074905 115.926308,143.516708 
	C116.427162,142.659134 117.179405,141.444427 116.907684,140.536087 
	C116.065590,137.721115 115.589272,134.002899 113.579338,132.514359 
	C110.447853,130.195221 106.977386,131.917969 103.824463,135.119553 
	C103.237503,135.081543 102.650536,135.043533 101.883713,134.127319 
	C101.883713,131.543045 101.883713,128.958771 101.883713,126.394318 
	C99.839302,126.394318 98.572853,126.394318 97.061020,126.394318 
	C96.884300,129.010986 96.721588,131.420181 96.554283,133.897491 
	C94.242393,133.897491 92.215660,133.897491 90.127235,133.897491 
	C90.009720,131.249588 89.908600,128.971161 89.796028,126.434525 
	C88.179794,126.434525 86.810417,126.434525 85.341568,126.434525 
	C85.341568,133.715851 85.341568,140.745087 85.341568,148.073837 
	C87.106506,147.857025 88.491524,147.686874 90.105209,147.488632 
	C90.105209,144.778381 90.105209,142.487961 90.105209,140.130386 
	C92.421036,139.811142 94.466621,139.529160 96.934822,139.188904 
	C96.934822,142.114502 96.934822,144.877609 96.934822,147.641174 
	C99.675819,148.110184 102.070618,148.699463 102.672531,144.839005 
	C103.166801,144.473373 103.661072,144.107758 104.675056,144.239410 
	C108.469429,149.351624 111.492622,149.537689 118.070930,144.927414 
	C122.077675,150.015991 127.326073,147.242859 132.826447,147.282806 
	C133.453903,147.472717 134.081345,147.662628 135.466888,147.942383 
M88.007774,87.200294 
	C88.007774,87.200294 88.236351,87.137604 88.236351,87.137604 
	C88.236351,87.137604 88.083168,87.288467 87.341690,87.087479 
	C85.239090,84.631622 83.489349,81.708023 80.968643,79.806374 
	C72.959335,73.764053 63.685352,72.034859 54.079899,74.358826 
	C46.347694,76.229568 39.049988,79.458069 35.040413,87.192886 
	C34.978527,87.312263 34.843533,87.393753 34.742661,87.492928 
	C34.863216,87.485840 34.983772,87.478752 35.199657,87.466049 
	C36.775620,86.397324 38.386410,85.229721 40.068562,84.176048 
	C54.670528,75.029510 76.068871,76.457718 88.007774,87.200294 
M62.865177,119.979134 
	C64.530396,119.804489 66.195610,119.629852 67.753502,119.466461 
	C68.857658,104.859161 69.684875,102.700073 74.871651,102.191185 
	C74.871651,106.027031 74.647217,109.826561 74.931297,113.587685 
	C75.250488,117.813766 79.000351,121.379082 82.703766,120.896011 
	C86.858200,120.354095 89.589127,117.707336 89.839783,113.457214 
	C90.140732,108.354591 89.910919,103.220665 89.910919,97.952789 
	C88.123917,97.952789 86.728813,97.952789 85.009315,97.952789 
	C85.009315,102.924873 85.198898,107.584076 84.877930,112.207848 
	C84.796219,113.384949 83.093704,114.449539 82.135895,115.565819 
	C81.389679,114.444511 80.061310,113.354271 79.999542,112.196457 
	C79.751999,107.556076 79.897247,102.894730 79.897247,98.174614 
	C76.579132,97.976524 73.135033,96.793579 70.735397,97.892136 
	C68.139259,99.080643 66.517960,102.398537 64.480614,104.795807 
	C60.709007,96.829567 60.709007,96.829567 50.611290,98.057281 
	C50.090130,100.374771 49.577156,102.655853 48.828316,105.985794 
	C42.707233,97.465584 42.707233,97.465584 38.568302,98.372292 
	C38.568302,104.438812 38.403683,110.588898 38.706627,116.715874 
	C38.767521,117.947403 40.604736,119.091110 41.622955,120.275307 
	C42.108761,119.947815 42.594570,119.620323 43.080379,119.292824 
	C43.080379,115.746742 43.080379,112.200661 43.080379,107.851326 
	C46.055687,112.673950 48.552879,116.721611 51.186489,120.990387 
	C52.391743,120.370850 54.200630,119.926773 54.246876,119.343063 
	C54.784477,112.557182 55.056171,105.750244 55.464485,97.633080 
	C60.276527,105.080460 63.090519,111.694969 62.865177,119.979134 
M41.665718,142.876297 
	C55.965717,150.897430 67.290131,151.018936 76.117287,142.700500 
	C65.138779,145.162369 55.147579,144.101654 45.636078,139.231583 
	C36.193527,134.396805 30.104431,126.526245 25.675791,117.062798 
	C27.566442,127.604187 31.886349,136.537399 41.665718,142.876297 
M116.057724,103.440895 
	C114.419289,104.113274 112.780853,104.785652 110.041649,105.909760 
	C111.848602,107.137482 112.758362,108.142731 113.838928,108.384445 
	C114.994911,108.643021 116.311882,108.181923 117.558578,108.034943 
	C108.965797,112.732460 108.079063,115.414841 112.918152,119.788475 
	C116.857910,119.566452 120.035858,119.387352 123.006569,119.219940 
	C123.006569,116.033531 122.800446,112.900673 123.054710,109.805641 
	C123.439087,105.126991 121.655678,102.833359 116.057724,103.440895 
M101.921227,103.686066 
	C101.921227,101.775620 101.921227,99.865173 101.921227,97.605614 
	C99.846077,97.732117 98.445992,97.817467 97.232895,97.891418 
	C97.232895,105.340477 97.232895,112.374268 97.232895,119.351158 
	C107.981529,120.505302 108.460258,120.324966 107.647354,115.149048 
	C102.049698,116.753777 101.562355,113.334122 101.902328,109.090195 
	C102.020996,107.608864 101.921234,106.110046 101.921227,103.686066 
z"/>
<path fill="#F2EDF4" opacity="1.000000" stroke="none" 
	d="
M62.554176,119.717163 
	C63.090519,111.694969 60.276527,105.080460 55.464485,97.633080 
	C55.056171,105.750244 54.784477,112.557182 54.246876,119.343063 
	C54.200630,119.926773 52.391743,120.370850 51.186489,120.990387 
	C48.552879,116.721611 46.055687,112.673950 43.080379,107.851326 
	C43.080379,112.200661 43.080379,115.746742 43.080379,119.292824 
	C42.594570,119.620323 42.108761,119.947815 41.622955,120.275307 
	C40.604736,119.091110 38.767521,117.947403 38.706627,116.715874 
	C38.403683,110.588898 38.568302,104.438812 38.568302,98.372292 
	C42.707233,97.465584 42.707233,97.465584 48.828316,105.985794 
	C49.577156,102.655853 50.090130,100.374771 50.611290,98.057281 
	C60.709007,96.829567 60.709007,96.829567 64.476044,104.791748 
	C66.517960,102.398537 68.139259,99.080643 70.735397,97.892136 
	C73.135033,96.793579 76.579132,97.976524 79.897247,98.174614 
	C79.897247,102.894730 79.751999,107.556076 79.999542,112.196457 
	C80.061310,113.354271 81.389679,114.444511 82.135895,115.565819 
	C83.093704,114.449539 84.796219,113.384949 84.877930,112.207848 
	C85.198898,107.584076 85.009315,102.924873 85.009315,97.952789 
	C86.728813,97.952789 88.123917,97.952789 89.910919,97.952789 
	C89.910919,103.220665 90.140732,108.354591 89.839783,113.457214 
	C89.589127,117.707336 86.858200,120.354095 82.703766,120.896011 
	C79.000351,121.379082 75.250488,117.813766 74.931297,113.587685 
	C74.647217,109.826561 74.871651,106.027031 74.871651,102.191185 
	C69.684875,102.700073 68.857658,104.859161 67.753502,119.466461 
	C66.195610,119.629852 64.530396,119.804489 62.554176,119.717163 
M73.119186,99.566132 
	C73.480026,99.665176 73.840858,99.764214 74.201698,99.863258 
	C74.208504,99.336700 74.215317,98.810143 74.222130,98.283585 
	C73.884613,98.397957 73.547096,98.512329 73.119186,99.566132 
z"/>
<path fill="#F2EDF5" opacity="1.000000" stroke="none" 
	d="
M141.098190,132.182388 
	C141.825409,131.314362 142.588638,130.473541 143.270599,129.571304 
	C144.098312,128.476257 144.857452,127.329399 145.681671,126.154449 
	C144.622345,125.347176 142.868271,124.010468 141.063141,122.005661 
	C141.535065,118.245026 142.021973,115.145821 142.591919,112.061974 
	C143.085358,109.392197 143.673035,106.739845 144.219055,104.079796 
	C147.984436,103.914139 151.749817,103.748482 155.878143,103.566856 
	C156.034134,104.613258 156.192902,105.678207 156.632050,106.991150 
	C156.912445,107.239136 156.943253,107.126991 156.943253,107.126991 
	C156.211197,107.620888 154.889771,108.062340 154.840439,108.616974 
	C154.449326,113.012634 151.774643,114.836502 148.578018,115.116707 
	C150.661835,116.325340 153.326080,117.642456 155.584702,119.462860 
	C155.874496,119.696426 154.055634,122.546234 153.126831,124.483490 
	C153.040085,124.782898 153.061188,124.728096 153.061188,124.728088 
	C151.585739,124.866264 150.110306,125.004433 148.321182,125.171974 
	C148.321182,127.237617 148.321182,129.311523 148.321182,131.356918 
	C149.395920,131.968765 150.534210,132.616791 151.672516,133.264832 
	C150.735504,134.163025 149.076004,135.003906 148.999329,135.970367 
	C148.784271,138.680298 149.069366,141.465179 149.478851,144.171829 
	C149.640533,145.240479 150.653366,146.180359 151.453522,147.458176 
	C144.276077,148.385605 143.376144,147.622803 143.277100,141.338318 
	C143.258850,140.180984 143.244461,139.023605 143.086548,137.079971 
	C142.329269,134.923264 141.713730,133.552826 141.098190,132.182388 
M147.407318,106.652641 
	C148.019547,107.738022 148.631760,108.823410 149.243988,109.908791 
	C149.675827,109.546829 150.107666,109.184875 150.539520,108.822914 
	C149.666321,108.056229 148.793137,107.289543 147.407318,106.652641 
z"/>
<path fill="#F4EFF6" opacity="1.000000" stroke="none" 
	d="
M104.703606,135.195450 
	C106.977386,131.917969 110.447853,130.195221 113.579338,132.514359 
	C115.589272,134.002899 116.065590,137.721115 116.907684,140.536087 
	C117.179405,141.444427 116.427162,142.659134 115.926308,143.516708 
	C117.104729,144.074905 117.104729,144.074905 121.835999,138.559357 
	C121.015785,137.197250 120.189026,135.824249 119.208702,134.196228 
	C122.979774,131.897049 126.780617,129.749527 131.387741,134.333130 
	C131.901749,139.016953 132.062866,143.019211 132.223969,147.021484 
	C127.326073,147.242859 122.077675,150.015991 118.070930,144.927414 
	C111.492622,149.537689 108.469429,149.351624 104.395126,143.560745 
	C104.311325,140.319870 104.507462,137.757660 104.703606,135.195450 
z"/>
<path fill="#F3EDF5" opacity="1.000000" stroke="none" 
	d="
M173.017654,103.995789 
	C175.282913,103.706284 177.541122,103.326996 179.815079,103.148293 
	C183.235687,102.879463 186.208633,103.452568 186.439621,108.440468 
	C188.769714,106.674065 190.372284,104.979614 192.339417,104.106712 
	C194.199417,103.281349 196.442337,103.318855 199.845978,102.757713 
	C200.188690,106.494156 200.483963,109.713364 200.127182,112.789352 
	C198.000610,112.579788 196.526108,112.513451 195.051590,112.447121 
	C195.063446,112.887756 195.075302,113.328392 195.087158,113.769028 
	C196.674927,113.846718 198.262711,113.924416 199.850479,114.002106 
	C199.939377,115.405937 200.327927,117.967674 200.070755,118.034233 
	C197.544205,118.688072 194.865250,119.377670 192.322601,119.124130 
	C190.640900,118.956444 189.111038,117.266098 187.513199,116.257446 
	C187.500244,116.769676 187.487289,117.281906 187.474335,117.794136 
	C185.586395,118.309952 183.698456,118.825775 181.549164,118.712875 
	C181.287796,114.708984 181.287796,111.333817 181.287796,107.958649 
	C176.285858,110.886681 178.680313,115.268051 178.109070,118.994736 
	C176.550293,119.160973 174.991516,119.327202 173.222595,118.781708 
	C172.964691,114.383545 172.916916,110.697121 172.869141,107.010696 
	C172.920105,106.557869 172.971069,106.105049 173.013077,105.074455 
	C173.008636,104.329720 173.013153,104.162758 173.017654,103.995789 
M194.687286,109.512016 
	C194.490692,109.826645 194.294098,110.141273 194.097504,110.455902 
	C194.363556,110.515785 194.629593,110.575668 194.895645,110.635551 
	C194.958298,110.285866 195.020950,109.936188 194.687286,109.512016 
M195.502213,116.469383 
	C195.502213,116.469383 195.518784,116.512543 195.502213,116.469383 
z"/>
<path fill="#F5F0F7" opacity="1.000000" stroke="none" 
	d="
M41.368267,142.667633 
	C31.886349,136.537399 27.566442,127.604187 25.675791,117.062798 
	C30.104431,126.526245 36.193527,134.396805 45.636078,139.231583 
	C55.147579,144.101654 65.138779,145.162369 76.117287,142.700500 
	C67.290131,151.018936 55.965717,150.897430 41.368267,142.667633 
z"/>
<path fill="#F3EEF5" opacity="1.000000" stroke="none" 
	d="
M102.068588,144.993942 
	C102.070618,148.699463 99.675819,148.110184 96.934822,147.641174 
	C96.934822,144.877609 96.934822,142.114502 96.934822,139.188904 
	C94.466621,139.529160 92.421036,139.811142 90.105209,140.130386 
	C90.105209,142.487961 90.105209,144.778381 90.105209,147.488632 
	C88.491524,147.686874 87.106506,147.857025 85.341568,148.073837 
	C85.341568,140.745087 85.341568,133.715851 85.341568,126.434525 
	C86.810417,126.434525 88.179794,126.434525 89.796028,126.434525 
	C89.908600,128.971161 90.009720,131.249588 90.127235,133.897491 
	C92.215660,133.897491 94.242393,133.897491 96.554283,133.897491 
	C96.721588,131.420181 96.884300,129.010986 97.061020,126.394318 
	C98.572853,126.394318 99.839302,126.394318 101.883713,126.394318 
	C101.883713,128.958771 101.883713,131.543045 101.898987,135.015015 
	C101.965698,138.933136 102.017143,141.963531 102.068588,144.993942 
z"/>
<path fill="#F4EFF6" opacity="1.000000" stroke="none" 
	d="
M153.025726,124.808502 
	C154.532364,125.198669 156.053360,125.563225 158.059860,126.044151 
	C158.226639,129.306488 158.759323,132.986801 164.274628,132.101395 
	C164.917023,131.998260 166.629059,134.697540 166.787125,136.208313 
	C167.164261,139.812515 166.908783,143.482895 166.908783,147.525833 
	C165.326981,147.684494 163.956451,147.821976 161.870819,148.031174 
	C161.870819,143.801468 161.870819,139.944946 161.870819,136.088409 
	C156.771530,138.927826 159.695602,143.722137 157.924942,147.707825 
	C156.624100,147.782074 155.065460,147.871033 152.647614,148.009018 
	C153.042969,140.282623 153.419479,132.924545 153.428589,125.147293 
	C153.061188,124.728096 153.040085,124.782898 153.025726,124.808502 
z"/>
<path fill="#F3EEF5" opacity="1.000000" stroke="none" 
	d="
M88.233345,87.369698 
	C76.068871,76.457718 54.670528,75.029510 40.068562,84.176048 
	C38.386410,85.229721 36.775620,86.397324 35.199657,87.466049 
	C34.983772,87.478752 34.863216,87.485840 34.742661,87.492928 
	C34.843533,87.393753 34.978527,87.312263 35.040413,87.192886 
	C39.049988,79.458069 46.347694,76.229568 54.079899,74.358826 
	C63.685352,72.034859 72.959335,73.764053 80.968643,79.806374 
	C83.489349,81.708023 85.239090,84.631622 87.752792,87.203064 
	C88.163902,87.318642 88.233345,87.369698 88.233345,87.369698 
z"/>
<path fill="#EEE8F1" opacity="1.000000" stroke="none" 
	d="
M135.995712,119.974396 
	C135.365738,117.519730 134.762772,115.057686 134.095001,112.613342 
	C133.730667,111.279747 133.256500,109.976166 132.831863,108.659050 
	C132.364456,108.742462 131.897034,108.825882 131.429626,108.909294 
	C131.429626,112.260979 131.429626,115.612671 131.429626,119.042427 
	C127.763153,120.327957 125.936844,119.942200 126.132835,115.926369 
	C126.318733,112.117401 126.172821,108.292252 126.172821,103.525375 
	C130.428131,103.855721 134.534180,104.174477 138.956207,105.153610 
	C139.390350,109.265427 139.364487,112.729729 139.670929,116.164375 
	C139.929153,119.058502 138.541901,119.980118 135.995712,119.974396 
z"/>
<path fill="#F4F0F6" opacity="1.000000" stroke="none" 
	d="
M116.443336,103.362289 
	C121.655678,102.833359 123.439087,105.126991 123.054710,109.805641 
	C122.800446,112.900673 123.006569,116.033531 123.006569,119.219940 
	C120.035858,119.387352 116.857910,119.566452 112.918152,119.788475 
	C108.079063,115.414841 108.965797,112.732460 117.558578,108.034943 
	C116.311882,108.181923 114.994911,108.643021 113.838928,108.384445 
	C112.758362,108.142731 111.848602,107.137482 110.041649,105.909760 
	C112.780853,104.785652 114.419289,104.113274 116.443336,103.362289 
z"/>
<path fill="#F6F2F7" opacity="1.000000" stroke="none" 
	d="
M157.024002,107.623260 
	C156.943253,107.126991 156.912445,107.239136 156.878632,107.284172 
	C162.653381,101.649551 166.368347,101.767097 170.608749,108.414635 
	C170.704773,111.314796 170.540207,113.556786 170.375641,115.798782 
	C168.369568,119.229683 165.438660,120.796448 161.584396,119.510704 
	C157.632156,118.192268 156.697281,114.879684 156.863861,111.102142 
	C156.907791,110.106339 157.022522,109.113655 157.024002,107.623260 
M161.952728,109.158089 
	C161.955795,110.789948 161.705444,112.481277 162.068527,114.028656 
	C162.250793,114.805435 163.549301,115.320290 164.343002,115.953598 
	C164.887100,113.884407 165.912277,111.798538 165.841232,109.750687 
	C165.768860,107.664619 164.327118,106.420425 161.952728,109.158089 
z"/>
<path fill="#F3EEF5" opacity="1.000000" stroke="none" 
	d="
M101.921227,104.152634 
	C101.921234,106.110046 102.020996,107.608864 101.902328,109.090195 
	C101.562355,113.334122 102.049698,116.753777 107.647354,115.149048 
	C108.460258,120.324966 107.981529,120.505302 97.232895,119.351158 
	C97.232895,112.374268 97.232895,105.340477 97.232895,97.891418 
	C98.445992,97.817467 99.846077,97.732117 101.921227,97.605614 
	C101.921227,99.865173 101.921227,101.775620 101.921227,104.152634 
z"/>
<path fill="#EDE7F0" opacity="1.000000" stroke="none" 
	d="
M134.328522,133.971115 
	C134.530838,132.210464 134.733170,130.449814 135.110458,127.166656 
	C137.048004,128.477829 138.359100,129.365082 139.692566,131.039398 
	C139.781830,133.553406 139.848709,135.280365 139.915588,137.007309 
	C139.743607,140.463379 139.571609,143.919449 139.384460,147.680359 
	C138.015305,147.771927 136.741089,147.857162 135.056656,147.442841 
	C134.540451,142.619232 134.434479,138.295166 134.328522,133.971115 
z"/>
<path fill="#550C8C" opacity="1.000000" stroke="none" 
	d="
M136.249649,120.186836 
	C138.541901,119.980118 139.929153,119.058502 139.670929,116.164375 
	C139.364487,112.729729 139.390350,109.265427 139.219223,105.409546 
	C140.606598,104.723938 142.046921,104.442772 143.853149,104.120697 
	C143.673035,106.739845 143.085358,109.392197 142.591919,112.061974 
	C142.021973,115.145821 141.535065,118.245026 140.940704,121.683182 
	C139.414093,121.485619 137.958832,120.942451 136.249649,120.186836 
z"/>
<path fill="#53088B" opacity="1.000000" stroke="none" 
	d="
M178.495132,118.996681 
	C178.680313,115.268051 176.285858,110.886681 181.287796,107.958649 
	C181.287796,111.333817 181.287796,114.708984 181.242722,118.546738 
	C180.425491,119.005753 179.653351,119.002190 178.495132,118.996681 
z"/>
<path fill="#500088" opacity="1.000000" stroke="none" 
	d="
M133.853226,133.991776 
	C134.434479,138.295166 134.540451,142.619232 134.677612,147.397919 
	C134.081345,147.662628 133.453903,147.472717 132.525208,147.152145 
	C132.062866,143.019211 131.901749,139.016953 131.609955,134.575470 
	C132.112167,134.094986 132.745041,134.053711 133.853226,133.991776 
z"/>
<path fill="#4D0286" opacity="1.000000" stroke="none" 
	d="
M170.662964,115.991249 
	C170.540207,113.556786 170.704773,111.314796 170.870392,108.649292 
	C171.343536,107.869965 171.815628,107.514137 172.578430,107.084503 
	C172.916916,110.697121 172.964691,114.383545 172.978943,118.528656 
	C172.280365,118.052811 171.615311,117.118263 170.662964,115.991249 
z"/>
<path fill="#4D0286" opacity="1.000000" stroke="none" 
	d="
M102.370560,144.916473 
	C102.017143,141.963531 101.965698,138.933136 101.988914,135.454132 
	C102.650536,135.043533 103.237503,135.081543 104.264038,135.157501 
	C104.507462,137.757660 104.311325,140.319870 104.135269,143.312103 
	C103.661072,144.107758 103.166801,144.473373 102.370560,144.916473 
z"/>
<path fill="#F2EBF4" opacity="1.000000" stroke="none" 
	d="
M199.913696,113.778183 
	C198.262711,113.924416 196.674927,113.846718 195.087158,113.769028 
	C195.075302,113.328392 195.063446,112.887756 195.051590,112.447121 
	C196.526108,112.513451 198.000610,112.579788 199.759888,112.870010 
	C200.044647,113.093895 199.976913,113.554268 199.913696,113.778183 
z"/>
<path fill="#500088" opacity="1.000000" stroke="none" 
	d="
M140.304581,137.008591 
	C139.848709,135.280365 139.781830,133.553406 139.813644,131.404129 
	C140.191711,131.233475 140.471100,131.485138 140.924332,131.959595 
	C141.713730,133.552826 142.329269,134.923264 142.986145,136.648651 
	C142.249512,137.005692 141.471542,137.007782 140.304581,137.008591 
z"/>
<path fill="#F3EEF5" opacity="1.000000" stroke="none" 
	d="
M88.123535,87.303558 
	C88.083168,87.288467 88.236351,87.137604 88.236351,87.137604 
	C88.236351,87.137604 88.007774,87.200294 88.120560,87.284996 
	C88.233345,87.369698 88.163902,87.318642 88.123535,87.303558 
z"/>
<path fill="#4D0286" opacity="1.000000" stroke="none" 
	d="
M172.919205,104.101654 
	C173.013153,104.162758 173.008636,104.329720 172.939072,104.738640 
	C172.664764,104.723511 172.647018,104.465820 172.919205,104.101654 
z"/>
<path fill="#58108D" opacity="1.000000" stroke="none" 
	d="
M73.164383,99.096420 
	C73.547096,98.512329 73.884613,98.397957 74.222130,98.283585 
	C74.215317,98.810143 74.208504,99.336700 74.201698,99.863258 
	C73.840858,99.764214 73.480026,99.665176 73.164383,99.096420 
z"/>
<path fill="#F2ECF4" opacity="1.000000" stroke="none" 
	d="
M147.663635,106.587753 
	C148.793137,107.289543 149.666321,108.056229 150.539520,108.822914 
	C150.107666,109.184875 149.675827,109.546829 149.243988,109.908791 
	C148.631760,108.823410 148.019547,107.738022 147.663635,106.587753 
z"/>
<path fill="#F2EBF4" opacity="1.000000" stroke="none" 
	d="
M194.885452,109.549255 
	C195.020950,109.936188 194.958298,110.285866 194.895645,110.635551 
	C194.629593,110.575668 194.363556,110.515785 194.097504,110.455902 
	C194.294098,110.141273 194.490692,109.826645 194.885452,109.549255 
z"/>
<path fill="#F2EBF4" opacity="1.000000" stroke="none" 
	d="
M195.510498,116.490967 
	C195.518784,116.512543 195.502213,116.469383 195.510498,116.490967 
z"/>
<path fill="#58108D" opacity="1.000000" stroke="none" 
	d="
M162.073349,108.768661 
	C164.327118,106.420425 165.768860,107.664619 165.841232,109.750687 
	C165.912277,111.798538 164.887100,113.884407 164.343002,115.953598 
	C163.549301,115.320290 162.250793,114.805435 162.068527,114.028656 
	C161.705444,112.481277 161.955795,110.789948 162.073349,108.768661 
z"/>
</svg>