<svg xmlns="http://www.w3.org/2000/svg" viewBox="0 0 275 183"><path d="M154 55.5V85h8V26h-8v29.5m-27-16V48h8V31h-8v8.5m-14 36V105h8V46h-8v29.5m27-21V63h9V46h-9v8.5m-13 22V85h8V68h-8v8.5m13-3.5v4h8v-8h-8v4m0 17.943V100h9.078l-.289-8.75-.289-8.75-4.25-.307-4.25-.308v9.058m27 30.023v6.967l-3.545-2.092c-8.392-4.951-17.491.51-18.246 10.951-.923 12.756 8.807 19.526 19.227 13.378 3.497-2.063 3.564-2.066 3.564-.136 0 1.518.684 1.966 3 1.966h3v-38h-7v6.966m-111 3.74c-.825.302-2.513 1.47-3.75 2.596L50 129.349v-2.175c0-1.818-.573-2.174-3.5-2.174H43v39h7v-7.5c0-8.234-.014-8.211 3.568-5.864 7.961 5.216 19.418-1.812 19.428-11.918.01-10.112-8.491-17.121-16.996-14.012m28.19 1.261c-7.892 4.951-8.195 19.523-.512 24.558 3.615 2.368 10.946 2.129 14.464-.472 2.845-2.103 2.858-2.103 2.858-.083 0 1.589.652 2.03 3 2.03h3v-27h-3c-2.414 0-3 .425-3 2.174v2.175l-2.438-2.291c-3.485-3.274-10.093-3.776-14.372-1.091m41.06-.319c-1.787.881-3.25 1.996-3.25 2.477 0 .481-.45.875-1 .875s-1-.9-1-2c0-1.556-.667-2-3-2h-3v27h7v-9c0-10.523 1.615-13.362 7.286-12.809 4.379.427 5.681 3.526 5.699 13.559L134 152h7.257l-.499-10.75c-.578-12.43-.999-13.806-4.83-15.787-3.621-1.873-6.61-1.821-10.678.185m59.94.319c-5.834 3.66-7.887 12.655-4.512 19.767 3.285 6.922 13.674 8.877 19.44 3.659 1.787-1.617 1.882-1.594 1.882.452 0 1.719.596 2.155 2.946 2.155h2.946l.304-13.502.304-13.501-3.25.001c-2.67.002-3.25.39-3.25 2.176v2.175l-2.438-2.291c-3.485-3.274-10.093-3.776-14.372-1.091m35.167-.975c-8.485 3.424-6.567 12.579 3.285 15.684 5.933 1.87 7.353 3.42 5.347 5.837-1.554 1.873-6.048 1.907-10.422.079-3.234-1.351-3.387-1.315-3.812.911-1.159 6.062 15.622 7.08 19.742 1.198 3.994-5.703 1.202-10.653-7.599-13.472-4.155-1.331-5.398-2.19-5.398-3.729 0-2.332 6.96-3.394 10.35-1.58 1.625.869 1.999.651 2.391-1.398.72-3.77-7.875-5.956-13.884-3.53m-167.559 7.056c-5.447 5.447-2.033 15.285 5.305 15.285 6.061 0 9.88-7.741 6.734-13.649-2.902-5.448-7.59-6.085-12.039-1.636m34.657-.593c-5.307 5.306-1.683 15.878 5.442 15.878 7.338 0 10.752-9.838 5.305-15.285-3.734-3.734-7.404-3.937-10.747-.593m67 0c-2.782 2.781-3.378 9.747-1.092 12.756 3.654 4.808 11.477 3.556 13.468-2.155 3.198-9.174-5.96-17.018-12.376-10.601m35.774-1.786c-1.906.767-4.229 5.834-4.229 9.226 0 6.935 8.473 11.076 13.131 6.418 6.713-6.712-.332-19.092-8.902-15.644" fill-rule="evenodd"/></svg>