<svg xmlns="http://www.w3.org/2000/svg" viewBox="0 0 200 155"><path fill="#bec0c3" stroke="#bec0c3" d="M77.546 2.585C52.725 6.443 31.99 16.073 17.443 30.5c-39.438 39.113-8.456 91.58 60.807 102.974l3.75.617V155h35v-20.707l9.25-1.777c5.088-.978 10.187-2.129 11.331-2.558 1.869-.701 2.777.537 8.889 12.131L153.278 155h19.468c15.164 0 19.362-.276 18.987-1.25-.265-.687-5.263-9.288-11.107-19.113-5.844-9.824-10.623-18.149-10.619-18.5.004-.35 1.573-1.703 3.486-3.007 11.361-7.736 23.7-25.566 25.124-36.302.436-3.286.952-4.538 1.508-3.661.5.79.822-1.721.789-6.167-.033-4.59-.353-6.737-.824-5.533-.613 1.57-.88 1.167-1.324-2-5.304-37.897-64.535-65.691-121.22-56.882M98.5 28.056c-18.422 2.489-36.454 10.228-47.154 20.237C28.96 69.234 38.527 96.6 73.11 110.544l8.39 3.384.263-36.009.262-36.008 38.238.295 38.237.294 5.5 2.59c14.802 6.971 21.219 21.327 16.613 37.169-3.008 10.346-13.234 19.855-23.044 21.425l-3.931.63 5.329 2.352 5.33 2.352 4.867-3.123c11.772-7.554 17.02-16.91 17.612-31.395.98-23.965-12.727-38.103-43.276-44.636-10.558-2.257-34.54-3.221-45-1.808M.336 68c0 4.125.177 5.813.392 3.75.216-2.062.216-5.437 0-7.5C.513 62.188.336 63.875.336 68M117 75.918V85h12.045C143.255 85 146 83.568 146 76.156c0-7.549-1.93-8.606-16.409-8.988L117 66.837v9.081m0 38.582v3.5l6.75-.015c8.982-.021 10.292-.93 6.243-4.337-2.471-2.079-4.204-2.648-8.07-2.648H117v3.5" fill-rule="evenodd"/><path fill="#9c9ca2" stroke="#9c9ca2" d="M140.475 13.694c-.875 1.844-2.026 3.084-2.558 2.755-.531-.329-.843-.022-.692.681.151.704-.4 1.32-1.225 1.37-.825.05-1.387.633-1.25 1.295.137.663-.219 1.205-.792 1.205-.573 0-1.96.856-3.083 1.902l-2.042 1.902 3.092.68c1.701.373 2.841 1.085 2.534 1.582-.313.507.728.647 2.37.318 1.63-.326 3.218-.117 3.582.472.359.581 1.319.801 2.134.488.814-.312 2.161-.003 2.992.687.831.69 1.797.969 2.145.62.349-.348 1.125-.246 1.726.227.601.474 2.892 1.432 5.092 2.129 38.15 12.091 45.722 56.497 12.869 75.475-3.068 1.772-3.244 1.761-8.846-.561l-5.715-2.369 4.346-1.117c27.729-7.131 33.616-44.446 8.969-56.858C157.992 42.482 152.759 42 116.451 42H82v36c0 19.882-.391 36-.874 36-.481 0-2.69-.641-4.91-1.424-2.219-.783-4.301-1.158-4.626-.833-.324.325-.59.039-.59-.635s-.45-.948-1-.608c-.55.34-1 .115-1-.5s-.414-.862-.919-.55c-.506.313-1.577-.089-2.381-.893-.804-.804-1.74-1.183-2.081-.843-.34.341-.619.019-.619-.714s-.288-1.045-.64-.693c-.755.755-6.275-2.151-8.182-4.307-1.179-1.333-1.241-1.333-.56 0 .646 1.265.514 1.296-.842.197-1.374-1.113-1.713-.972-2.328.968C49.715 105.473 39.421 116 37.897 116c-2.277 0 .771 2.971 5.153 5.024 2.723 1.275 4.95 2.718 4.95 3.206s.419.629.931.313c.512-.317 1.218-.111 1.569.457.351.568 1.057.774 1.569.457.512-.316.931-.05.931.591s.675.907 1.5.59c.825-.316 1.5-.091 1.5.5 0 .592.675.817 1.5.5.825-.316 1.5-.215 1.5.225 0 .853 17.464 5.137 20.938 5.137 1.958 0 2.062.556 2.062 11v11h34v-10.531c0-7.575.351-10.629 1.25-10.877 2.203-.608 19.182-3.776 21.1-3.937 1.409-.118 3.434 2.878 8.5 12.573l6.65 12.727 19.323.023 19.324.022-3.273-5.75c-1.8-3.162-7.028-11.993-11.617-19.624-4.589-7.63-8.211-13.947-8.05-14.038 3.756-2.108 13.299-10.49 16.987-14.919 19.157-23.01 16.658-51.251-6.379-72.098-6.79-6.145-15.253-11.799-16.218-10.835-.328.328-.597.046-.597-.628s-.45-.948-1-.608c-.55.34-1 .115-1-.5s-.45-.84-1-.5c-.55.34-1 .115-1-.5s-.45-.84-1-.5c-.55.34-1 .115-1-.5s-.45-.84-1-.5c-.55.34-1 .191-1-.33s-.562-.927-1.25-.901c-2.964.11-4.835-.323-4.406-1.019.254-.412-1.279-.786-3.408-.829-3.44-.071-4.047.293-5.461 3.273M116.212 76.25l.288 9.25h12.23c14.566 0 17.725-1.712 17.725-9.606 0-7.409-3.014-8.894-18.048-8.894h-12.482l.287 9.25m-.022 38.5.31 3.75 7.915-.249c9.501-.298 9.723-.454 6.075-4.261-2.544-2.655-3.522-2.99-8.737-2.99h-5.874l.311 3.75" fill-rule="evenodd"/><path fill="#2366b9" stroke="#2366b9" d="m82.501 98.728.002 55.726 16.729.377 16.729.376.27-22.353.269-22.354 4.829-.039c8.594-.069 9.102.551 25.633 31.289l7.127 13.25h37.957l-1.403-2.25c-5.536-8.875-20.92-35.35-21.637-37.234-1.15-3.026-6.291-6.796-12.341-9.051l-4.835-1.802 6.236-1.914C173.602 97.98 181 88.221 181 72.497c0-13.338-6.882-23.247-18.984-27.334-6.103-2.061-8.126-2.163-42.96-2.162l-36.556.002.001 55.725m34.166-32.061c-.367.366-.667 4.866-.667 10V86l11.75-.004c13.96-.004 17.685-1.47 18.797-7.395 1.754-9.349-3.049-12.597-18.63-12.599-5.821-.001-10.884.298-11.25.665" fill-rule="evenodd"/></svg>