<svg xmlns="http://www.w3.org/2000/svg" viewBox="0 0 275 183"><path fill="#f3f5f8" stroke="#f3f5f8" d="M119.5 35.616c-15.043 2.17-28.655 7.224-32.448 12.045C85.059 50.194 85 51.442 85 90.79v40.52l3.933 3.741c5.697 5.419 23.838 10.806 36.752 10.914 3.698.031 4.803.652 9.5 5.334 14.64 14.598 34.961 14.998 49.943.985 13.42-12.553 14.302-34.869 1.896-47.98L184 101.108V76.702c0-28.129-.193-28.816-9.532-33.914-10.296-5.621-39.4-9.419-54.968-7.172m.727 5.456c-14.781 1.429-28.666 6.846-29.873 11.655-3.581 14.265 56.316 20.23 80.646 8.032 21.387-10.723-11.516-23.481-50.773-19.687M90.213 72.225l.287 9.202 3.413 2.296c15.07 10.142 59.13 10.997 77.654 1.507 5.838-2.991 6.236-3.799 6.603-13.385l.33-8.644-2.913 1.509c-20.48 10.613-64.206 10.727-82.374.215l-3.288-1.902.288 9.202M90 96.508c0 7.99.116 8.412 2.967 10.81 3.489 2.937 12.9 6.2 22.033 7.641 11.201 1.768 11.438 1.699 14.826-4.305 1.66-2.94 5.141-7.215 7.736-9.5l4.72-4.154h-10.51c-13.095 0-26.055-2.202-34.948-5.939L90 88.194v8.314m82.623-6.033-4.877 2.149 5.403 1.99 5.403 1.991-.348-3.553c-.192-1.953-.429-3.816-.526-4.139-.098-.323-2.373.38-5.055 1.562m-19.672 7.832c-26.355 7.426-30.249 42.918-6.083 55.428 29.789 15.421 58.438-22.251 35.539-46.731-7.429-7.942-19.494-11.504-29.456-8.697m-62.738 22.929.287 9.191 3.413 2.296c4.589 3.089 14.192 5.95 24.624 7.339 9.776 1.301 9.926 1.253 8.385-2.673-.623-1.589-1.198-5.926-1.278-9.638l-.144-6.75-4.5-.007c-6.148-.011-20.229-3.502-26.18-6.49l-4.894-2.459.287 9.191m54.026-3.57c-5.1 2.054-3.082 7.841 3.293 9.446 3.288.828 4.468 1.617 4.468 2.988 0 2.986-4.92 3.716-7.079 1.051-1.964-2.425-3.921-2.827-3.921-.806 0 2.359 3.977 5.055 7.456 5.055 8.068 0 9.231-7.838 1.544-10.4-4.624-1.541-6.239-2.804-5.375-4.202.878-1.421 6.411-.867 7.013.702.589 1.533 3.362 2.129 3.362.723 0-3.824-6.134-6.421-10.761-4.557m16.674.616c-7.591 5.828-3.915 16.938 5.674 17.149 2.702.06 5.444.444 6.094.855 1.943 1.228 2.665-1.312.768-2.7-1.223-.894-1.404-1.495-.6-1.992 2.238-1.384 1.37-9.466-1.304-12.139-2.697-2.698-7.898-3.272-10.632-1.173M177 126v9h6.083c4.427 0 5.968-.34 5.658-1.25-.249-.731-2.15-1.25-4.584-1.25h-4.16l.002-7.75c.001-6.223-.295-7.75-1.499-7.75-1.222 0-1.5 1.667-1.5 9m-15.965-4.066c-1.626 3.04-1.217 6.884.965 9.066 2.377 2.377 5.204 2.696 4.359.492-.429-1.116.034-1.441 1.781-1.25 2.725.298 4.037-6.119 1.802-8.812-1.795-2.163-7.657-1.831-8.907.504" fill-rule="evenodd"/><path fill="#fbfbfb" stroke="#fbfbfb" d="M118.597 36.07c-15.84 2.19-29.386 7.688-32.161 13.054-2.627 5.081-2.074 80.796.616 84.215 4.354 5.535 19.696 10.722 36.045 12.187 7.489.671 7.667.752 12.5 5.72 16.253 16.704 44.737 13.174 55.599-6.891 7.238-13.372 5.392-29.057-4.739-40.271L183 100.258V49.736l-3.404-3.21c-8.656-8.164-39.424-13.438-60.999-10.456m-1.404 4.931C72.194 47.352 85.756 67.397 135 67.32c55.714-.088 58.538-25.327 3-26.82-7.975-.214-17.338.011-20.807.501M89 71.132c0 7.988.062 8.19 3.476 11.411 13.453 12.687 68.759 12.848 83.117.241 3.368-2.957 3.407-3.088 3.407-11.388 0-4.618-.188-8.396-.418-8.396-.23 0-2.592 1.074-5.25 2.387-18.908 9.342-57.819 9.375-78.203.066C92.175 64.104 89.588 63 89.379 63c-.208 0-.379 3.659-.379 8.132m.015 23.601c.008 4.272.57 8.865 1.25 10.208 2.374 4.691 15.128 9.368 29.829 10.939l7.052.753 2.058-4.066c3.175-6.277 5.718-9.498 9.875-12.51l3.817-2.764-13.698-.6c-15.127-.663-27.168-3.124-35.204-7.196L89 86.966l.015 7.767m83.755-4.703-5.73 2.702 5.686 2.095c6.707 2.47 6.476 2.587 6.083-3.056l-.309-4.443-5.73 2.702m-21.91 8.538c-11.382 3.504-20.254 15.964-20.246 28.432.019 28.127 32.824 41.09 52.183 20.621 21.367-22.592-1.885-58.305-31.937-49.053M89 120.132c0 7.943.078 8.206 3.38 11.32 4.203 3.964 14.139 7.339 25.875 8.789 10.065 1.244 10.035 1.256 8.728-3.301-.541-1.885-.983-6.242-.983-9.683V121l-3.25-.013c-5.68-.023-21.507-3.729-27.352-6.405-3.102-1.42-5.81-2.582-6.019-2.582-.208 0-.379 3.659-.379 8.132m54.75-2.052c-3.788 2.206-.565 8.92 4.281 8.92 3.146 0 5.547 2.599 4.059 4.392-1.88 2.264-5.649 1.997-8.04-.569-2.625-2.817-3.815-1.639-1.662 1.646 1.306 1.993 2.488 2.531 5.564 2.531 9.17 0 9.422-8.529.309-10.466-3.859-.82-4.869-2.097-3.225-4.078 1.686-2.03 3.952-1.816 6.544.619 2.86 2.687 4.244.749 1.456-2.039-2.18-2.18-6.433-2.618-9.286-.956m17.112.814c-7.236 5.691-3.283 16.428 5.897 16.019 2.058-.091 4.528.164 5.491.567 1.005.422 1.75.298 1.75-.29 0-.563-.515-1.195-1.143-1.404-.858-.286-.858-.915 0-2.518 4.657-8.702-4.566-18.217-11.995-12.374M177 125.917V135h5.5c3.025 0 5.5-.45 5.5-1s-1.781-1-3.958-1h-3.958l-.292-7.67c-.446-11.723-2.792-11.23-2.792.587M162 121c-2.554 2.554-2.645 8.106-.171 10.345 2.328 2.107 5.321 2.21 4.533.155-.684-1.78.756-1.982 2.401-.337.884.884 1.412.508 2.2-1.565 1.463-3.847 1.316-4.973-1.036-7.963-2.473-3.145-5.199-3.363-7.927-.635" fill-rule="evenodd"/><path fill="#1d6dda" stroke="#1d6dda" d="M113.831 37.023c-12.56 2.12-22.095 6.126-26.205 11.01L85 51.153l.035 39.174c.028 29.937.338 39.718 1.318 41.483 3.508 6.322 16.219 11.13 34.944 13.218l9.728 1.085 4.503 4.814c16.299 17.424 44.939 13.166 56.303-8.371 2.375-4.502 2.668-6.153 2.668-15.056.001-11.226-1.53-15.672-8.004-23.235L183 100.182V50.765l-3.75-3.729c-9.027-8.977-41.819-13.995-65.419-10.013m-1.331 4.595c-15.792 2.84-25.609 9.514-22.03 14.976 9.42 14.377 71.326 15.219 86.277 1.174 12.011-11.284-31.078-22.115-64.247-16.15M89 70.891c0 7.562.289 9.042 2.158 11.048 10.953 11.757 56.956 14.302 79.076 4.375C178.222 82.73 179 81.357 179 70.848v-8.707l-4.353 2.433c-9.409 5.259-18.336 6.783-40.147 6.853-22.048.072-28.634-.997-39.75-6.448L89 62.16v8.731m0 24.391c0 6.881.364 8.911 1.963 10.944 3.495 4.443 16.353 8.733 30.577 10.202l6.04.624 1.353-3.776c.786-2.192 4.125-6.503 7.96-10.276l6.607-6.5-6.376.341c-15.699.839-34.353-2.95-47.374-9.623-.412-.212-.75 3.417-.75 8.064m87.367-7.249c-.569.569-3.246 1.882-5.95 2.918-3.976 1.524-4.534 2.006-2.917 2.524 1.1.351 4.137 1.475 6.75 2.496l4.75 1.857v-5.414c0-5.353-.624-6.39-2.633-4.381m-25.485 10.348c-31.542 11.271-25.39 57.059 7.975 59.359 21.731 1.499 37.617-19.744 30.588-40.905-4.879-14.689-23.783-23.736-38.563-18.454M89 119.853c0 7.601.287 9.078 2.158 11.086C95.767 135.887 112.455 141 123.993 141c4.869 0 5.031-.087 3.939-2.127-.626-1.17-1.38-5.646-1.674-9.946l-.536-7.818-5.611-.584c-8.129-.846-20.638-4.182-26.25-7.001L89 111.083v8.77m55.223-1.296c-4.162 2.914-2.4 6.858 3.6 8.058 6.335 1.267 6.948 6.385.765 6.385-2.382 0-3.931-.652-4.927-2.073-.867-1.239-1.71-1.656-2.093-1.037-2.337 3.781 8.574 6.821 11.777 3.281 3.31-3.657 1.835-6.181-4.903-8.388-2.841-.931-3.942-1.849-3.942-3.287 0-2.733 5.361-3.407 7.19-.905.709.97 1.631 1.42 2.05 1 .979-.983-3.444-4.591-5.628-4.591-.917 0-2.667.701-3.889 1.557m18.092-.55c-8.585 3.459-4.389 17.927 4.843 16.696 2.011-.268 4.141-.004 4.733.588.592.592 1.408.744 1.813.338.406-.406.171-1.088-.522-1.516-.942-.583-.998-1.467-.221-3.511 3.129-8.229-3.123-15.626-10.646-12.595M177 126.5v8.5h5.5c3.025 0 5.5-.45 5.5-1s-2.025-1-4.5-1H179v-7.5c0-4.333-.422-7.5-1-7.5-.588 0-1 3.5-1 8.5m-15.345-5.671c-3.816 4.216-1.438 12.18 3.63 12.156 2.555-.012 2.907-.236 1.715-1.087-1.204-.86-1.053-.973.763-.575 4.238.93 5.885-6.675 2.237-10.323-2.496-2.496-6.173-2.571-8.345-.171" fill-rule="evenodd"/><path fill="#153067" stroke="#153067" d="M114.803 37.079c-7.319 1.074-20.308 5.432-23.98 8.047-5.921 4.217-5.917 4.181-5.607 46.967l.284 39.062 3.593 3.292C95.014 139.872 112.184 145 124.426 145c6.214 0 7.144-2.564 1.227-3.381-20.271-2.801-29.076-5.343-33.801-9.757-2.735-2.556-2.852-3.04-2.852-11.847 0-5.05.338-9.009.75-8.798 13.693 7.008 35.293 11.72 36.716 8.011.752-1.96 1.344-1.747-8.606-3.098-10.984-1.493-22.471-5.383-26.066-8.828C89.149 104.769 89 104.155 89 95.813c0-4.847.243-8.813.54-8.813.297 0 2.434.97 4.75 2.157 13.565 6.948 41.808 9.622 54.71 5.18 2.475-.853 7.721-1.699 11.658-1.88 5.222-.241 8.528-1.024 12.217-2.894 6.474-3.28 6.125-3.434 6.125 2.696 0 4.177.412 5.517 2 6.509 1.98 1.236 2 .999 2-23.414V50.69l-3.932-3.74c-9.275-8.823-39.623-13.484-64.265-9.871m9.196 3.042c-19.314 1.262-36.042 8.222-34.835 14.492 2.456 12.754 53.182 18.105 79.182 8.354 27.373-10.266-2.371-25.59-44.347-22.846M89 71.082c0 8.749.115 9.222 2.865 11.767 14.175 13.117 70.884 13.069 84.873-.072 2.034-1.912 2.262-3.06 2.262-11.403v-9.278l-4.75 2.445c-18.834 9.695-61.028 9.699-80.154.008L89 61.966v9.116m54.04 48.37c-2.251 2.712-.716 4.961 4.722 6.916 6.016 2.162 7.086 4.979 2.548 6.704-2.198.836-3.205.643-5.5-1.054-2.993-2.213-3.867-1.218-1.239 1.411 2.726 2.726 8.675 1.849 10.492-1.547 1.6-2.99-.465-5.494-5.596-6.786-3.909-.984-4.551-1.49-4.283-3.377.417-2.931 5.617-3.712 7.506-1.128.709.97 1.583 1.469 1.942 1.11s.084-1.339-.612-2.177c-1.616-1.947-8.383-1.996-9.98-.072M160 120c-5.32 5.32-.506 15.831 6.714 14.659 1.962-.318 4.516-.122 5.677.436 1.925.927 1.957.892.364-.396-1.619-1.31-1.63-1.643-.153-4.602 4.215-8.449-6.037-16.662-12.602-10.097m18.201 6.25L178 135h5c2.75 0 5-.45 5-1s-2.006-1-4.458-1h-4.458l-.341-7.75-.341-7.75-.201 8.75m-15.895-6.606c-4.594 1.869-3.181 11.973 1.927 13.769 3.065 1.078 4.999.01 2.738-1.512-1.188-.8-1.086-.939.529-.721 3.091.417 4.5-.997 4.5-4.517 0-5.972-4.413-9.168-9.694-7.019" fill-rule="evenodd"/></svg>