<svg version="1.1" id="Layer_1" xmlns="http://www.w3.org/2000/svg" xmlns:xlink="http://www.w3.org/1999/xlink" x="0px" y="0px"
	 width="100%" viewBox="0 0 299 168" enable-background="new 0 0 299 168" xml:space="preserve">
<path fill="#FBFCFD" opacity="1.000000" stroke="none" 
	d="
M197.000000,169.000000 
	C131.333344,169.000000 66.166679,169.000000 1.000018,169.000000 
	C1.000012,113.000015 1.000012,57.000031 1.000006,1.000033 
	C100.666634,1.000022 200.333267,1.000022 299.999939,1.000011 
	C299.999939,56.999969 299.999939,112.999939 299.999969,168.999954 
	C265.833344,169.000000 231.666672,169.000000 197.000000,169.000000 
M195.929901,149.588058 
	C195.810837,149.553040 195.691772,149.518021 195.572708,149.483002 
	C195.683685,149.681839 195.794662,149.880676 196.033768,150.668335 
	C196.486923,150.963303 196.940079,151.258286 197.393250,151.553253 
	C197.493149,151.275452 197.732986,150.794846 197.670807,150.751953 
	C197.180603,150.413727 196.632721,150.159088 195.929901,149.588058 
M248.730118,75.702652 
	C248.730118,75.702652 248.915207,76.012726 248.774063,76.680939 
	C248.865707,77.123566 248.957352,77.566193 249.024170,78.552971 
	C249.340332,78.661316 249.656479,78.769661 250.903259,79.025108 
	C261.276764,78.976318 271.650299,78.927536 282.558807,78.920815 
	C282.676086,78.620201 282.793396,78.319580 283.069916,77.091064 
	C283.014923,57.054111 282.959900,37.017159 282.945496,16.451355 
	C282.640381,16.344036 282.335266,16.236717 281.099670,15.979221 
	C194.718750,15.972288 108.337845,15.964794 21.956928,15.965376 
	C20.962217,15.965383 19.967508,16.070093 18.442043,16.083096 
	C18.325129,16.381269 18.208214,16.679445 17.930672,17.905710 
	C17.984476,25.610992 18.038280,33.316277 18.059328,41.614258 
	C18.378063,41.760910 18.696800,41.907562 19.508230,42.213352 
	C19.669722,42.152473 19.831213,42.091591 20.502716,42.158154 
	C20.668941,42.102684 20.835169,42.047218 21.918909,42.199436 
	C53.139400,42.199436 84.359894,42.199436 115.524643,42.199436 
	C116.697411,46.142471 117.728958,49.610703 118.774269,53.906761 
	C120.979561,62.952545 123.184860,71.998329 125.632500,82.038177 
	C134.967758,69.197899 143.501831,57.329052 152.234711,45.608345 
	C153.362946,44.094097 155.495773,42.437374 157.204376,42.391911 
	C167.859177,42.108395 178.540283,41.919147 189.184357,42.368858 
	C200.689514,42.854946 207.175598,53.713192 202.440353,64.212746 
	C201.183533,66.999573 198.786301,69.272072 196.372162,71.937248 
	C196.555466,72.690041 196.738770,73.442825 197.189529,74.751915 
	C198.115753,75.837700 199.041962,76.923485 199.987442,78.666397 
	C200.280975,79.240257 200.574524,79.814110 200.770889,80.712288 
	C200.770889,80.712288 200.956665,80.995346 200.924469,81.639381 
	C201.605911,82.015488 202.287354,82.391594 203.675980,82.791191 
	C210.843033,68.918381 218.014862,55.048012 225.134323,41.150818 
	C225.247849,40.929230 224.719040,40.378586 225.298187,39.959522 
	C231.358414,40.300709 237.418625,40.641899 243.362137,41.815498 
	C244.141876,41.931892 244.921616,42.048290 245.930542,42.949577 
	C245.673584,44.836143 245.029572,46.764156 245.226395,48.602127 
	C246.098648,56.747105 247.212280,64.866226 248.180237,73.625488 
	C248.400040,74.203178 248.619827,74.780861 248.730118,75.702652 
M205.299911,144.336945 
	C205.157669,145.794128 205.015411,147.251312 204.956482,147.855011 
	C207.318115,147.632584 209.137863,147.461182 210.964813,147.951797 
	C211.359451,148.765442 211.754105,149.579071 212.148743,150.392715 
	C212.422226,150.311371 212.695694,150.230042 212.969177,150.148697 
	C212.969177,149.076813 212.969177,148.004944 213.007126,146.192596 
	C211.966171,146.126694 210.846802,146.280289 209.902786,145.943039 
	C208.513992,145.446915 207.250336,144.600555 206.457794,144.252838 
	C206.462433,143.931091 206.467072,143.609344 206.471695,143.287598 
	C206.315857,143.526642 206.160019,143.765686 205.299911,144.336945 
M109.084557,146.303940 
	C108.938744,145.593414 108.792938,144.882889 108.825073,145.039490 
	C106.617554,145.305191 104.829353,145.520416 103.032677,145.148422 
	C102.679443,144.551529 102.326210,143.954620 101.972977,143.357712 
	C101.982094,143.902802 101.991203,144.447891 101.297249,145.221512 
	C101.529694,146.480011 101.762138,147.738510 102.507065,149.439468 
	C103.023460,150.237381 103.539856,151.035294 104.789558,152.966278 
	C104.916718,150.128220 104.980301,148.709030 105.677208,147.157440 
	C106.104012,147.201385 106.530807,147.245331 106.952049,147.958313 
	C107.342918,148.792282 107.733795,149.626266 108.124672,150.460251 
	C108.414871,150.378525 108.705063,150.296814 108.995262,150.215088 
	C108.995262,149.139755 108.995262,148.064407 109.084557,146.303940 
M128.182205,144.554474 
	C130.250778,142.565384 130.495163,140.539810 127.852432,138.998947 
	C127.300194,138.676971 125.979408,139.673141 124.268501,140.244598 
	C124.268501,141.969345 124.268501,143.694092 124.268501,145.634171 
	C125.523140,145.484695 126.689384,145.345734 128.182205,144.554474 
M94.718834,148.892807 
	C94.233696,145.924896 93.748550,142.956970 92.724037,139.300354 
	C90.494553,139.193314 88.265068,139.086288 86.002708,138.977661 
	C86.002708,143.345184 86.002708,147.109100 86.002708,152.446198 
	C89.140656,151.100067 91.613594,150.039215 94.718834,148.892807 
M130.774063,101.715843 
	C125.589600,102.107040 120.405128,102.498238 115.113014,102.088470 
	C113.123116,93.585556 111.181320,85.070702 109.079376,76.595581 
	C108.830635,75.592651 107.704903,74.807228 106.985695,73.920982 
	C106.294769,74.831696 105.193283,75.654823 104.977364,76.666878 
	C103.120003,85.372963 101.422539,94.113174 98.788490,102.930092 
	C94.203445,102.930092 89.618393,102.930092 84.955765,102.930092 
	C84.955765,99.479126 84.955765,96.553894 84.955765,93.628654 
	C84.445023,93.606308 83.934288,93.583954 83.423546,93.561607 
	C82.629532,97.376587 81.835510,101.191574 80.962860,105.587349 
	C81.304581,105.702583 81.646294,105.817810 82.916145,106.079384 
	C88.945343,106.030197 94.974533,105.981010 101.757248,105.793335 
	C103.181908,98.554596 104.606560,91.315865 106.395691,83.666725 
	C106.895081,83.535240 107.394478,83.403755 107.863968,84.060120 
	C109.908760,91.349503 111.953552,98.638878 114.924255,106.073189 
	C120.292183,105.982018 125.660103,105.890846 131.485703,105.799171 
	C131.795547,105.629738 131.920471,105.371010 132.399811,104.443626 
	C132.714874,103.736511 133.029922,103.029404 133.498398,102.125778 
	C134.050095,101.440392 134.601791,100.755005 135.729843,99.731598 
	C139.263138,94.548485 142.796432,89.365372 146.329742,84.182259 
	C146.594055,84.334221 146.858368,84.486183 147.122681,84.638145 
	C145.782898,91.431549 144.443130,98.224960 143.027054,105.568718 
	C143.345215,105.681648 143.663376,105.794579 144.908936,106.069733 
	C163.918411,106.065529 182.929321,106.179306 201.936096,105.950928 
	C205.454636,105.908653 208.956573,104.485603 212.989273,103.216537 
	C214.662888,101.228920 216.098709,97.864227 218.057144,97.526054 
	C222.875687,96.694000 227.934555,97.253693 233.352142,97.253693 
	C233.667511,100.281830 233.951538,103.008995 234.238480,105.764191 
	C241.365570,105.764191 248.256149,105.764191 255.118134,105.764191 
	C255.118134,102.646019 255.118134,99.840561 256.034241,97.132828 
	C263.987335,97.173889 271.940460,97.214951 279.931183,98.160637 
	C279.922363,107.705116 279.913513,117.249588 278.982971,126.877426 
	C193.007370,126.857796 107.031769,126.838165 21.019300,125.904556 
	C21.019300,103.823898 21.019300,81.743240 21.019300,59.572182 
	C32.315289,59.572182 43.040672,59.572182 54.065456,59.572182 
	C53.847294,61.186565 53.752987,62.494781 53.485844,63.766697 
	C50.858444,76.276016 48.324993,88.807327 45.477974,101.266838 
	C44.646893,104.903923 45.511230,106.341133 49.188610,106.068207 
	C53.775677,105.727745 58.376846,105.508415 62.938885,104.961273 
	C63.786366,104.859627 64.477539,103.454712 65.435760,102.446136 
	C59.130112,102.446136 53.951717,102.446136 48.496662,102.446136 
	C51.674877,87.261223 54.885796,71.920059 58.176384,56.198246 
	C44.794258,56.198246 31.990486,56.191895 19.186872,56.233673 
	C18.855587,56.234756 18.526020,56.762363 18.011606,57.495689 
	C18.011606,57.495689 18.107121,57.973591 17.936462,58.900650 
	C17.991230,81.940819 18.046000,104.980980 18.070543,128.642822 
	C18.396597,128.806442 18.722651,128.970062 19.680698,129.362076 
	C20.114605,129.283157 20.548512,129.204239 21.906452,129.313202 
	C107.513603,129.325180 193.120758,129.343491 278.727875,129.293396 
	C280.117676,129.292587 281.507019,128.456100 283.053253,127.082336 
	C283.001007,116.718346 282.948730,106.354347 282.759064,95.086487 
	C272.523529,95.086487 262.287994,95.086487 251.623795,95.086487 
	C251.809875,97.414253 251.991562,99.687073 251.729218,102.733498 
	C246.827530,102.733498 241.925827,102.733498 236.800354,102.733498 
	C236.427704,100.016685 236.077225,97.461472 235.695984,94.682045 
	C230.317642,94.682045 225.179916,95.054138 220.121780,94.578888 
	C214.916580,94.089806 212.013351,95.979111 210.441772,101.586548 
	C209.325104,102.059242 208.222763,102.894920 207.089203,102.939651 
	C202.933548,103.103638 198.767517,103.004631 194.923172,103.004631 
	C194.765076,101.559715 194.623260,100.263474 194.481430,98.967232 
	C193.231781,99.433395 191.956604,99.841721 190.738495,100.379349 
	C188.930557,101.177292 187.174835,102.773766 185.376389,102.803856 
	C172.633041,103.017082 159.884476,102.917313 146.801514,102.917313 
	C148.678543,93.912354 150.487549,85.478310 152.133011,77.012474 
	C152.326111,76.019005 151.619034,74.850586 151.329254,73.763268 
	C150.463928,74.245964 149.280304,74.512314 148.782471,75.244781 
	C143.746887,82.653740 138.823441,90.138916 133.321960,97.935204 
	C132.654160,98.989540 131.986343,100.043884 130.774063,101.715843 
M71.068893,63.717598 
	C69.035210,73.677689 67.001526,83.637787 64.967842,93.597878 
	C65.472588,93.855019 65.977325,94.112167 66.482071,94.369308 
	C67.267654,92.927399 68.441566,91.569778 68.775795,90.029900 
	C70.947731,80.023193 72.937134,69.976875 75.367683,59.605621 
	C75.657059,59.426350 75.946434,59.247078 77.126404,59.235909 
	C81.678146,59.235909 86.229889,59.235909 91.265686,59.235909 
	C88.965897,69.409477 86.808807,78.742134 84.796280,88.105865 
	C84.528770,89.350525 84.995377,90.752975 85.122009,92.082352 
	C85.763443,92.075485 86.404869,92.068611 87.046295,92.061745 
	C88.400726,85.468018 89.755157,78.874283 91.434509,71.948853 
	C91.616348,71.674438 91.669670,71.376991 91.919662,70.315147 
	C92.322006,67.986786 92.724342,65.658424 93.474442,62.984894 
	C93.665245,62.696079 93.724747,62.382374 93.942749,61.368633 
	C93.986557,60.637691 94.030373,59.906754 94.500496,58.523998 
	C94.287666,57.748898 94.060318,56.292950 93.864113,56.297131 
	C86.890388,56.445839 79.919579,56.731293 72.457588,57.507561 
	C72.262413,58.894875 72.067238,60.282192 71.526764,62.013306 
	C71.332924,62.302242 71.282494,62.614334 71.068893,63.717598 
M230.809097,61.535645 
	C227.772552,67.496559 224.735992,73.457474 221.589340,79.634521 
	C226.258408,79.634521 230.247330,79.634521 233.697952,79.634521 
	C233.697952,75.976944 233.819733,72.697792 233.664429,69.431816 
	C233.502197,66.019905 233.073288,62.620678 232.685028,58.388039 
	C231.873627,59.629555 231.461121,60.260731 230.809097,61.535645 
M181.856781,66.787743 
	C185.858139,66.476601 188.104095,64.054947 187.765488,60.321724 
	C187.630585,58.834373 184.985199,56.323421 183.652893,56.428879 
	C179.534912,56.754833 174.491409,53.645195 171.433151,58.259777 
	C170.020294,60.391613 170.188477,63.571274 169.533981,66.797676 
	C173.737930,66.797676 177.358047,66.797676 181.856781,66.787743 
M182.157608,85.756355 
	C183.449158,80.934456 181.904190,79.086830 177.311798,79.866631 
	C176.182571,80.058380 175.007095,80.005142 173.852432,80.015236 
	C166.282120,80.081413 165.239624,81.170448 165.369415,89.337822 
	C168.793945,89.337822 172.283051,89.671379 175.667068,89.218964 
	C177.872833,88.924057 179.925858,87.486832 182.157608,85.756355 
M147.661545,152.001404 
	C148.792343,152.001404 149.923157,152.001404 151.397217,152.001404 
	C151.120499,150.674088 151.006058,148.984650 150.727417,148.957123 
	C145.202621,148.411133 146.164169,143.386322 144.505569,140.197754 
	C144.153305,139.520584 143.609695,138.942963 142.995865,138.102631 
	C142.014954,139.135818 141.286621,139.902954 141.014847,140.189194 
	C143.151520,144.389999 145.038498,148.099899 147.661545,152.001404 
M203.060532,142.268433 
	C202.535645,141.359039 202.010757,140.449646 201.462143,139.499146 
	C198.529358,144.419144 199.724976,150.897476 202.381943,151.086456 
	C202.718323,148.285416 203.045456,145.561523 203.060532,142.268433 
M50.251720,148.833878 
	C50.473446,149.659363 50.695171,150.484833 50.916901,151.310318 
	C52.064987,148.876373 51.722328,146.454086 52.172932,144.189667 
	C52.536259,142.363815 53.857460,140.728577 54.685638,139.139359 
	C52.613438,139.139359 49.452038,139.139359 45.556828,139.139359 
	C50.253967,140.813782 50.253967,140.813782 50.251720,148.833878 
M173.741516,145.690292 
	C174.274368,145.271545 174.807236,144.852798 175.340088,144.434067 
	C174.004959,143.871231 172.669815,143.308411 171.334686,142.745575 
	C171.224747,143.035583 171.114807,143.325577 171.004868,143.615585 
	C171.749939,144.173889 172.495010,144.732193 173.741516,145.690292 
M191.837738,148.834518 
	C191.048874,148.838593 190.259995,148.842667 189.471130,148.846756 
	C189.681305,149.422546 189.891479,149.998352 190.101669,150.574142 
	C190.728500,150.225250 191.355316,149.876358 191.837738,148.834518 
M137.452927,148.655777 
	C137.682861,149.548431 137.912811,150.441086 138.142761,151.333740 
	C138.608154,151.096954 139.073547,150.860168 139.538956,150.623383 
	C139.000214,149.835297 138.461487,149.047195 137.452927,148.655777 
M174.066757,149.350906 
	C174.549911,149.495209 175.033066,149.639526 175.516220,149.783829 
	C175.508972,149.089722 175.501740,148.395615 175.494507,147.701508 
	C175.054581,148.055206 174.614655,148.408905 174.066757,149.350906 
M139.996674,143.186401 
	C140.061035,143.963074 140.125381,144.739731 140.189743,145.516403 
	C140.526077,145.442993 140.862411,145.369598 141.198746,145.296204 
	C140.979126,144.558731 140.759506,143.821274 139.996674,143.186401 
M169.716553,150.107819 
	C169.456696,149.831192 169.201828,149.549194 168.924240,149.291687 
	C168.908096,149.276688 168.707932,149.460037 168.593384,149.551071 
	C168.866013,149.841492 169.138626,150.131897 169.716553,150.107819 
M205.817032,150.738586 
	C205.978821,150.620956 206.140610,150.503342 206.302399,150.385727 
	C206.076828,150.410095 205.851257,150.434464 205.817032,150.738586 
M138.500778,146.632202 
	C138.500778,146.632202 138.610886,146.449203 138.610886,146.449203 
	C138.610886,146.449203 138.388077,146.472351 138.500778,146.632202 
M168.520691,144.407654 
	C168.520691,144.407654 168.592209,144.523499 168.520691,144.407654 
z"/>
<path fill="#FEFEFE" opacity="1.000000" stroke="none" 
	d="
M243.478851,40.983089 
	C237.418625,40.641899 231.358414,40.300709 224.612366,39.592720 
	C223.296097,39.662228 222.384186,39.955105 222.077698,40.556519 
	C217.975693,48.605400 213.958267,56.697392 209.712173,64.920067 
	C209.397552,65.365707 209.290588,65.669945 209.055008,66.145996 
	C208.926407,66.317802 208.906876,66.746590 208.690979,66.888824 
	C208.372528,67.346275 208.269958,67.661476 208.044983,68.150696 
	C207.922546,68.324707 207.908600,68.750000 207.690674,68.890366 
	C207.367661,69.346390 207.262558,69.662048 206.955475,70.264183 
	C205.854538,72.428581 204.955582,74.306503 203.733002,76.407440 
	C202.925583,76.464615 202.441772,76.298775 201.910156,75.804718 
	C199.017181,73.316635 201.476868,71.997772 202.595718,70.351944 
	C207.075577,63.762062 208.874878,56.634197 205.246826,49.183784 
	C201.657990,41.813854 194.974380,39.122494 187.153992,38.997921 
	C179.490082,38.875839 171.770096,39.531063 164.171265,38.817257 
	C156.186066,38.067158 151.061142,40.568279 146.770187,47.542797 
	C141.061935,56.821007 134.107819,65.332710 127.337616,74.657570 
	C125.102943,66.542526 123.083763,59.210030 121.081924,51.478775 
	C120.079018,47.381550 119.058762,43.683090 117.812950,39.614841 
	C108.798141,39.195396 100.008789,39.089718 91.219673,39.107044 
	C68.829796,39.151192 46.440041,39.250290 23.706684,39.252178 
	C22.899738,39.227230 22.436340,39.277500 21.625000,39.043427 
	C21.277054,32.329601 21.277054,25.900120 21.277054,19.313694 
	C107.528290,19.313694 193.528214,19.313694 279.668823,19.313694 
	C279.668823,38.251831 279.668823,56.956295 279.668823,76.003593 
	C270.248718,76.003593 261.117035,76.003593 251.803925,75.739059 
	C251.404099,74.651199 251.185730,73.827866 251.034973,72.562927 
	C250.497559,67.215294 249.996826,62.293518 249.258820,57.407574 
	C248.484924,52.283966 247.483444,47.194733 246.840317,41.772919 
	C245.987228,40.701061 244.875259,39.946754 243.763306,39.192451 
	C243.668488,39.789333 243.573669,40.386211 243.478851,40.983089 
z"/>
<path fill="#1A5BA2" opacity="1.000000" stroke="none" 
	d="
M251.985367,76.003601 
	C261.117035,76.003593 270.248718,76.003593 279.668823,76.003593 
	C279.668823,56.956295 279.668823,38.251831 279.668823,19.313694 
	C193.528214,19.313694 107.528290,19.313694 21.277054,19.313694 
	C21.277054,25.900120 21.277054,32.329601 21.509453,39.254799 
	C21.491760,40.157600 21.241669,40.564693 20.770615,41.091316 
	C20.364004,41.484135 20.178354,41.757423 19.992704,42.030708 
	C19.831213,42.091591 19.669722,42.152473 19.170546,41.910477 
	C18.666176,41.310833 18.419250,41.115486 18.092085,41.021557 
	C18.038280,33.316277 17.984476,25.610992 18.210194,17.361309 
	C18.740400,16.649273 18.901428,16.418945 18.972797,16.125927 
	C19.967508,16.070093 20.962217,15.965383 21.956928,15.965376 
	C108.337845,15.964794 194.718750,15.972288 281.650391,16.250542 
	C282.375854,16.766596 282.610443,16.919376 282.904907,16.980206 
	C282.959900,37.017159 283.014923,57.054111 282.787964,77.634079 
	C282.250824,78.346039 282.090057,78.579926 282.023804,78.878754 
	C271.650299,78.927536 261.276764,78.976318 250.347229,78.748352 
	C249.601486,78.224815 249.354080,78.070557 249.048981,78.008812 
	C248.957352,77.566193 248.865707,77.123566 249.228668,76.347610 
	C250.450623,76.010712 251.218002,76.007156 251.985367,76.003601 
z"/>
<path fill="#11569F" opacity="1.000000" stroke="none" 
	d="
M209.919815,64.778664 
	C213.958267,56.697392 217.975693,48.605400 222.077698,40.556519 
	C222.384186,39.955105 223.296097,39.662228 224.208282,39.603710 
	C224.719040,40.378586 225.247849,40.929230 225.134323,41.150818 
	C218.014862,55.048012 210.843033,68.918381 203.184647,82.541229 
	C202.114426,81.859299 201.535553,81.427322 200.956665,80.995346 
	C200.956665,80.995346 200.770889,80.712288 200.842789,80.206642 
	C200.599182,79.137085 200.283676,78.573181 199.968170,78.009270 
	C199.041962,76.923485 198.115753,75.837700 197.069962,74.071320 
	C196.937820,72.854057 196.925247,72.317390 196.912674,71.780724 
	C198.786301,69.272072 201.183533,66.999573 202.440353,64.212746 
	C207.175598,53.713192 200.689514,42.854946 189.184357,42.368858 
	C178.540283,41.919147 167.859177,42.108395 157.204376,42.391911 
	C155.495773,42.437374 153.362946,44.094097 152.234711,45.608345 
	C143.501831,57.329052 134.967758,69.197899 125.632500,82.038177 
	C123.184860,71.998329 120.979561,62.952545 119.108124,53.451385 
	C119.982841,52.623188 120.523720,52.250362 121.064590,51.877533 
	C123.083763,59.210030 125.102943,66.542526 127.337616,74.657570 
	C134.107819,65.332710 141.061935,56.821007 146.770187,47.542797 
	C151.061142,40.568279 156.186066,38.067158 164.171265,38.817257 
	C171.770096,39.531063 179.490082,38.875839 187.153992,38.997921 
	C194.974380,39.122494 201.657990,41.813854 205.246826,49.183784 
	C208.874878,56.634197 207.075577,63.762062 202.595718,70.351944 
	C201.476868,71.997772 199.017181,73.316635 201.958969,76.088135 
	C202.722595,76.527985 203.389618,76.356209 204.056625,76.184433 
	C204.955582,74.306503 205.854538,72.428581 207.156723,70.113144 
	C207.676163,69.367088 207.792374,69.058548 207.908600,68.750000 
	C207.908600,68.750000 207.922546,68.324707 208.244446,67.998489 
	C208.679840,67.363716 208.793365,67.055153 208.906891,66.746597 
	C208.906876,66.746590 208.926407,66.317802 209.250916,65.998596 
	C209.801392,65.421661 209.916183,65.121414 209.919815,64.778664 
z"/>
<path fill="#175AA1" opacity="1.000000" stroke="none" 
	d="
M18.100765,128.021149 
	C18.046000,104.980980 17.991230,81.940819 18.174706,58.363434 
	C18.477434,57.734394 18.617130,57.599064 18.593500,57.558212 
	C18.486023,57.372406 18.332569,57.213196 18.195652,57.044422 
	C18.526020,56.762363 18.855587,56.234756 19.186872,56.233673 
	C31.990486,56.191895 44.794258,56.198246 58.176384,56.198246 
	C54.885796,71.920059 51.674877,87.261223 48.496662,102.446136 
	C53.951717,102.446136 59.130112,102.446136 65.435760,102.446136 
	C64.477539,103.454712 63.786366,104.859627 62.938885,104.961273 
	C58.376846,105.508415 53.775677,105.727745 49.188610,106.068207 
	C45.511230,106.341133 44.646893,104.903923 45.477974,101.266838 
	C48.324993,88.807327 50.858444,76.276016 53.485844,63.766697 
	C53.752987,62.494781 53.847294,61.186565 54.065456,59.572182 
	C43.040672,59.572182 32.315289,59.572182 21.019300,59.572182 
	C21.019300,81.743240 21.019300,103.823898 21.017195,126.745697 
	C21.004198,128.099655 20.993307,128.612488 20.982416,129.125305 
	C20.548512,129.204239 20.114605,129.283157 19.265776,129.014984 
	C18.600824,128.452316 18.350796,128.236740 18.100765,128.021149 
z"/>
<path fill="#004B9A" opacity="1.000000" stroke="none" 
	d="
M21.444435,129.219254 
	C20.993307,128.612488 21.004198,128.099655 21.035625,127.202682 
	C107.031769,126.838165 193.007370,126.857796 279.631165,127.124588 
	C281.151733,127.584366 282.024170,127.796974 282.896576,128.009583 
	C281.507019,128.456100 280.117676,129.292587 278.727875,129.293396 
	C193.120758,129.343491 107.513603,129.325180 21.444435,129.219254 
z"/>
<path fill="#1357A0" opacity="1.000000" stroke="none" 
	d="
M133.868515,97.602692 
	C138.823441,90.138916 143.746887,82.653740 148.782471,75.244781 
	C149.280304,74.512314 150.463928,74.245964 151.329254,73.763268 
	C151.619034,74.850586 152.326111,76.019005 152.133011,77.012474 
	C150.487549,85.478310 148.678543,93.912354 146.801514,102.917313 
	C159.884476,102.917313 172.633041,103.017082 185.376389,102.803856 
	C187.174835,102.773766 188.930557,101.177292 190.738495,100.379349 
	C191.956604,99.841721 193.231781,99.433395 194.481445,98.967239 
	C194.623260,100.263474 194.765076,101.559715 194.923172,103.004631 
	C198.767517,103.004631 202.933548,103.103638 207.089203,102.939651 
	C208.222763,102.894920 209.325104,102.059242 210.882431,101.639275 
	C211.704117,102.361275 212.085144,103.030556 212.466156,103.699829 
	C208.956573,104.485603 205.454636,105.908653 201.936096,105.950928 
	C182.929321,106.179306 163.918411,106.065529 144.356583,105.789879 
	C143.630127,105.261314 143.396500,105.097427 143.103348,105.018364 
	C144.443130,98.224960 145.782898,91.431549 147.122681,84.638145 
	C146.858368,84.486183 146.594055,84.334221 146.329742,84.182259 
	C142.796432,89.365372 139.263138,94.548485 135.148926,99.684753 
	C134.334839,98.959503 134.101669,98.281097 133.868515,97.602692 
z"/>
<path fill="#11569F" opacity="1.000000" stroke="none" 
	d="
M74.986290,59.943520 
	C72.937134,69.976875 70.947731,80.023193 68.775795,90.029900 
	C68.441566,91.569778 67.267654,92.927399 66.482071,94.369308 
	C65.977325,94.112167 65.472588,93.855019 64.967842,93.597878 
	C67.001526,83.637787 69.035210,73.677689 71.391533,63.161816 
	C71.885918,62.313961 71.938545,62.001785 71.872063,61.669506 
	C72.067238,60.282192 72.262413,58.894875 73.175476,57.259697 
	C79.200027,57.014347 84.513885,56.865852 89.808647,57.118095 
	C91.259872,57.187229 92.653908,58.457001 94.074188,59.175812 
	C94.030373,59.906754 93.986557,60.637691 93.622246,61.876377 
	C93.120789,62.676720 93.062431,62.992035 93.126686,63.330067 
	C92.724342,65.658424 92.322006,67.986786 91.594360,70.849945 
	C91.102921,71.663216 91.049759,71.961823 91.109589,72.280556 
	C89.755157,78.874283 88.400726,85.468018 87.046295,92.061745 
	C86.404869,92.068611 85.763443,92.075485 85.122009,92.082352 
	C84.995377,90.752975 84.528770,89.350525 84.796280,88.105865 
	C86.808807,78.742134 88.965897,69.409477 91.265686,59.235909 
	C86.229889,59.235909 81.678146,59.235909 76.409935,59.194466 
	C75.457741,59.416519 75.222015,59.680019 74.986290,59.943520 
z"/>
<path fill="#04519D" opacity="1.000000" stroke="none" 
	d="
M121.081924,51.478775 
	C120.523720,52.250362 119.982841,52.623188 119.101242,53.037476 
	C117.728958,49.610703 116.697411,46.142471 115.524643,42.199436 
	C84.359894,42.199436 53.139400,42.199436 21.458523,41.840591 
	C20.995949,41.311760 20.993763,41.141769 20.991577,40.971783 
	C21.241669,40.564693 21.491760,40.157600 21.857399,39.539139 
	C22.436340,39.277500 22.899738,39.227230 24.042723,39.483582 
	C55.827713,39.855015 86.933113,39.919823 118.038513,39.984627 
	C119.058762,43.683090 120.079018,47.381550 121.081924,51.478775 
z"/>
<path fill="#0D529E" opacity="1.000000" stroke="none" 
	d="
M99.677345,102.843193 
	C101.422539,94.113174 103.120003,85.372963 104.977364,76.666878 
	C105.193283,75.654823 106.294769,74.831696 106.985695,73.920982 
	C107.704903,74.807228 108.830635,75.592651 109.079376,76.595581 
	C111.181320,85.070702 113.123116,93.585556 114.876526,102.682388 
	C114.426140,104.160294 114.212242,105.044273 113.998352,105.928261 
	C111.953552,98.638878 109.908760,91.349503 107.886909,83.329605 
	C107.510941,82.239296 107.112030,81.879494 106.713120,81.519691 
	C106.485817,82.372169 106.258514,83.224648 106.031212,84.077126 
	C104.606560,91.315865 103.181908,98.554596 101.368439,105.499451 
	C100.545540,104.418114 100.111443,103.630653 99.677345,102.843193 
z"/>
<path fill="#0B519D" opacity="1.000000" stroke="none" 
	d="
M212.727722,103.458191 
	C212.085144,103.030556 211.704117,102.361275 211.162659,101.348511 
	C212.013351,95.979111 214.916580,94.089806 220.121780,94.578888 
	C225.179916,95.054138 230.317642,94.682045 235.695984,94.682045 
	C236.077225,97.461472 236.427704,100.016685 236.800354,102.733498 
	C241.925827,102.733498 246.827530,102.733498 252.195221,102.127655 
	C253.480179,100.026245 254.299149,98.530670 255.118134,97.035103 
	C255.118134,99.840561 255.118134,102.646019 255.118134,105.764191 
	C248.256149,105.764191 241.365570,105.764191 234.238480,105.764191 
	C233.951538,103.008995 233.667511,100.281830 233.352142,97.253693 
	C227.934555,97.253693 222.875687,96.694000 218.057144,97.526054 
	C216.098709,97.864227 214.662888,101.228920 212.727722,103.458191 
z"/>
<path fill="#1758A1" opacity="1.000000" stroke="none" 
	d="
M230.928864,61.213776 
	C231.461121,60.260731 231.873627,59.629555 232.685028,58.388039 
	C233.073288,62.620678 233.502197,66.019905 233.664429,69.431816 
	C233.819733,72.697792 233.697952,75.976944 233.697952,79.634521 
	C230.247330,79.634521 226.258408,79.634521 221.589340,79.634521 
	C224.735992,73.457474 227.772552,67.496559 230.928864,61.213776 
M230.413010,75.482307 
	C230.413010,75.482307 230.524963,75.415794 230.413010,75.482307 
z"/>
<path fill="#2060A5" opacity="1.000000" stroke="none" 
	d="
M181.417480,66.792709 
	C177.358047,66.797676 173.737930,66.797676 169.533981,66.797676 
	C170.188477,63.571274 170.020294,60.391613 171.433151,58.259777 
	C174.491409,53.645195 179.534912,56.754833 183.652893,56.428879 
	C184.985199,56.323421 187.630585,58.834373 187.765488,60.321724 
	C188.104095,64.054947 185.858139,66.476601 181.417480,66.792709 
M176.599823,63.786461 
	C179.548279,63.238251 183.728439,65.496872 185.067200,59.269180 
	C181.644440,59.269180 178.629562,59.119453 175.650970,59.381779 
	C174.966003,59.442104 174.015762,60.875954 173.922806,61.755409 
	C173.859131,62.357880 175.068542,63.094913 176.599823,63.786461 
z"/>
<path fill="#0B519D" opacity="1.000000" stroke="none" 
	d="
M182.102463,86.158844 
	C179.925858,87.486832 177.872833,88.924057 175.667068,89.218964 
	C172.283051,89.671379 168.793945,89.337822 165.369415,89.337822 
	C165.239624,81.170448 166.282120,80.081413 173.852432,80.015236 
	C175.007095,80.005142 176.182571,80.058380 177.311798,79.866631 
	C181.904190,79.086830 183.449158,80.934456 182.102463,86.158844 
M177.115234,82.020531 
	C173.975006,82.770134 169.327194,79.864899 167.969162,86.007347 
	C171.218094,86.007347 174.181000,86.139160 177.119614,85.929947 
	C178.045258,85.864044 178.905792,84.883766 179.796127,84.321983 
	C179.193619,83.561066 178.591125,82.800148 177.115234,82.020531 
z"/>
<path fill="#1758A1" opacity="1.000000" stroke="none" 
	d="
M246.581451,42.090477 
	C247.483444,47.194733 248.484924,52.283966 249.258820,57.407574 
	C249.996826,62.293518 250.497559,67.215294 250.716309,72.558334 
	C249.905167,73.005440 249.480331,73.015526 248.851410,73.014313 
	C248.647308,73.003029 248.238571,72.994705 248.238571,72.994705 
	C247.212280,64.866226 246.098648,56.747105 245.226395,48.602127 
	C245.029572,46.764156 245.673584,44.836143 246.034149,42.514496 
	C246.137741,42.079411 246.581451,42.090477 246.581451,42.090477 
z"/>
<path fill="#11569F" opacity="1.000000" stroke="none" 
	d="
M282.974915,127.545959 
	C282.024170,127.796974 281.151733,127.584366 280.092010,127.082916 
	C279.913513,117.249588 279.922363,107.705116 280.095184,97.411575 
	C281.138275,96.438461 282.017395,96.214409 282.896484,95.990356 
	C282.948730,106.354347 283.001007,116.718346 282.974915,127.545959 
z"/>
<path fill="#1758A1" opacity="1.000000" stroke="none" 
	d="
M99.232918,102.886642 
	C100.111443,103.630653 100.545540,104.418114 100.991684,105.568695 
	C94.974533,105.981010 88.945343,106.030197 82.352097,105.799309 
	C81.597832,105.262962 81.348984,105.092072 81.041489,105.006561 
	C81.835510,101.191574 82.629532,97.376587 83.423546,93.561607 
	C83.934288,93.583954 84.445023,93.606308 84.955765,93.628654 
	C84.955765,96.553894 84.955765,99.479126 84.955765,102.930092 
	C89.618393,102.930092 94.203445,102.930092 99.232918,102.886642 
z"/>
<path fill="#004B9A" opacity="1.000000" stroke="none" 
	d="
M282.827759,95.538422 
	C282.017395,96.214409 281.138275,96.438461 280.076355,96.959259 
	C271.940460,97.214951 263.987335,97.173889 255.576187,97.083969 
	C254.299149,98.530670 253.480179,100.026245 252.417236,101.740852 
	C251.991562,99.687073 251.809875,97.414253 251.623795,95.086487 
	C262.287994,95.086487 272.523529,95.086487 282.827759,95.538422 
z"/>
<path fill="#1357A0" opacity="1.000000" stroke="none" 
	d="
M114.461304,106.000725 
	C114.212242,105.044273 114.426140,104.160294 114.930351,103.082870 
	C120.405128,102.498238 125.589600,102.107040 131.494965,101.809387 
	C132.592239,102.042717 132.968613,102.182503 133.344986,102.322289 
	C133.029922,103.029404 132.714874,103.736511 131.956360,104.821518 
	C131.294250,105.353416 131.132614,105.553505 131.028030,105.799667 
	C125.660103,105.890846 120.292183,105.982018 114.461304,106.000725 
z"/>
<path fill="#054297" opacity="1.000000" stroke="none" 
	d="
M94.086540,148.978363 
	C91.613594,150.039215 89.140656,151.100067 86.002708,152.446198 
	C86.002708,147.109100 86.002708,143.345184 86.002708,138.977661 
	C88.265068,139.086288 90.494553,139.193314 92.926392,140.033661 
	C92.749924,141.905045 92.371094,143.043091 91.598541,144.085373 
	C87.170120,143.541031 86.689240,145.859406 87.227371,149.256332 
	C87.165787,149.493561 87.500603,149.851608 87.500603,149.851608 
	C87.500603,149.851608 87.987808,149.797440 88.374329,149.890564 
	C90.160637,149.606445 91.560425,149.229202 93.251404,148.797943 
	C93.723907,148.822067 93.905228,148.900223 94.086540,148.978363 
z"/>
<path fill="#DEE5EF" opacity="1.000000" stroke="none" 
	d="
M147.293518,151.905609 
	C145.038498,148.099899 143.151520,144.389999 141.014847,140.189194 
	C141.286621,139.902954 142.014954,139.135818 142.995865,138.102631 
	C143.609695,138.942963 144.153305,139.520584 144.505569,140.197754 
	C146.164169,143.386322 145.202621,148.411133 150.727417,148.957123 
	C151.006058,148.984650 151.120499,150.674088 151.397217,152.001404 
	C149.923157,152.001404 148.792343,152.001404 147.293518,151.905609 
z"/>
<path fill="#557EB5" opacity="1.000000" stroke="none" 
	d="
M203.216553,142.553040 
	C203.045456,145.561523 202.718323,148.285416 202.381943,151.086456 
	C199.724976,150.897476 198.529358,144.419144 201.462143,139.499146 
	C202.010757,140.449646 202.535645,141.359039 203.216553,142.553040 
z"/>
<path fill="#2658A2" opacity="1.000000" stroke="none" 
	d="
M50.251774,148.410187 
	C50.253967,140.813782 50.253967,140.813782 45.556828,139.139359 
	C49.452038,139.139359 52.613438,139.139359 54.685638,139.139359 
	C53.857460,140.728577 52.536259,142.363815 52.172932,144.189667 
	C51.722328,146.454086 52.064987,148.876373 50.916901,151.310318 
	C50.695171,150.484833 50.473446,149.659363 50.251774,148.410187 
z"/>
<path fill="#1E5EA3" opacity="1.000000" stroke="none" 
	d="
M94.287338,58.849907 
	C92.653908,58.457001 91.259872,57.187229 89.808647,57.118095 
	C84.513885,56.865852 79.200027,57.014347 73.420868,57.004715 
	C79.919579,56.731293 86.890388,56.445839 93.864113,56.297131 
	C94.060318,56.292950 94.287666,57.748898 94.287338,58.849907 
z"/>
<path fill="#F2F5F9" opacity="1.000000" stroke="none" 
	d="
M94.402687,148.935577 
	C93.905228,148.900223 93.723907,148.822067 93.209312,148.457428 
	C92.581444,146.841003 92.286858,145.511078 91.992264,144.181152 
	C92.371094,143.043091 92.749924,141.905045 93.196075,140.378021 
	C93.748550,142.956970 94.233696,145.924896 94.402687,148.935577 
z"/>
<path fill="#DEE5EF" opacity="1.000000" stroke="none" 
	d="
M125.012794,140.061890 
	C125.979408,139.673141 127.300194,138.676971 127.852432,138.998947 
	C130.495163,140.539810 130.250778,142.565384 127.728020,144.658737 
	C127.166885,143.708511 127.059937,142.654037 126.803589,141.234024 
	C126.215797,140.595612 125.777397,140.322723 125.259552,140.110001 
	C125.180107,140.170151 125.012794,140.061890 125.012794,140.061890 
z"/>
<path fill="#1A5BA2" opacity="1.000000" stroke="none" 
	d="
M126.952988,141.599548 
	C127.059937,142.654037 127.166885,143.708511 127.564728,144.984894 
	C126.689384,145.345734 125.523140,145.484695 124.268501,145.634171 
	C124.268501,143.694092 124.268501,141.969345 124.640648,140.153244 
	C125.012794,140.061890 125.180107,140.170151 125.230240,140.600891 
	C125.837906,141.220932 126.395447,141.410248 126.952988,141.599548 
z"/>
<path fill="#054297" opacity="1.000000" stroke="none" 
	d="
M103.041145,145.735626 
	C104.829353,145.520416 106.617554,145.305191 108.825073,145.039490 
	C108.792938,144.882889 108.938744,145.593414 108.696533,146.681442 
	C107.858200,147.135727 107.407906,147.212494 106.957611,147.289261 
	C106.530807,147.245331 106.104012,147.201385 105.020432,147.126343 
	C103.573967,147.729172 102.784279,148.363098 101.994583,148.997009 
	C101.762138,147.738510 101.529694,146.480011 101.760109,145.312561 
	C102.419510,145.701996 102.692238,145.812668 103.041145,145.735626 
z"/>
<path fill="#054297" opacity="1.000000" stroke="none" 
	d="
M210.957626,147.289780 
	C209.137863,147.461182 207.318115,147.632584 204.956482,147.855011 
	C205.015411,147.251312 205.157669,145.794128 205.633240,144.146271 
	C205.966583,143.955612 205.933365,143.903381 205.933365,143.903381 
	C207.250336,144.600555 208.513992,145.446915 209.902786,145.943039 
	C210.846802,146.280289 211.966171,146.126694 212.651245,146.622101 
	C211.849457,147.131012 211.403534,147.210388 210.957626,147.289780 
z"/>
<path fill="#DEE5EF" opacity="1.000000" stroke="none" 
	d="
M102.250824,149.218231 
	C102.784279,148.363098 103.573967,147.729172 104.703781,147.192551 
	C104.980301,148.709030 104.916718,150.128220 104.789558,152.966278 
	C103.539856,151.035294 103.023460,150.237381 102.250824,149.218231 
z"/>
<path fill="#F2F5F9" opacity="1.000000" stroke="none" 
	d="
M173.490799,145.490387 
	C172.495010,144.732193 171.749939,144.173889 171.004868,143.615585 
	C171.114807,143.325577 171.224747,143.035583 171.334686,142.745575 
	C172.669815,143.308411 174.004959,143.871231 175.340088,144.434067 
	C174.807236,144.852798 174.274368,145.271545 173.490799,145.490387 
z"/>
<path fill="#11569F" opacity="1.000000" stroke="none" 
	d="
M246.840317,41.772919 
	C246.581451,42.090477 246.137741,42.079411 245.919556,42.122047 
	C244.921616,42.048290 244.141876,41.931892 243.420502,41.399292 
	C243.573669,40.386211 243.668488,39.789333 243.763306,39.192451 
	C244.875259,39.946754 245.987228,40.701061 246.840317,41.772919 
z"/>
<path fill="#DEE5EF" opacity="1.000000" stroke="none" 
	d="
M191.909943,149.181000 
	C191.355316,149.876358 190.728500,150.225250 190.101669,150.574142 
	C189.891479,149.998352 189.681305,149.422546 189.471130,148.846741 
	C190.259995,148.842667 191.048874,148.838593 191.909943,149.181000 
z"/>
<path fill="#0D529E" opacity="1.000000" stroke="none" 
	d="
M133.595245,97.768951 
	C134.101669,98.281097 134.334839,98.959503 134.860748,99.853760 
	C134.601791,100.755005 134.050095,101.440392 133.421692,102.224030 
	C132.968613,102.182503 132.592239,102.042717 131.767212,101.500580 
	C131.986343,100.043884 132.654160,98.989540 133.595245,97.768951 
z"/>
<path fill="#004B9A" opacity="1.000000" stroke="none" 
	d="
M249.055511,73.025604 
	C249.480331,73.015526 249.905167,73.005440 250.648666,72.999939 
	C251.185730,73.827866 251.404099,74.651199 251.803925,75.739067 
	C251.218002,76.007156 250.450623,76.010712 249.299225,76.013504 
	C248.915207,76.012726 248.730118,75.702652 248.859329,75.144806 
	C249.010864,74.066505 249.033188,73.546051 249.055511,73.025604 
z"/>
<path fill="#DEE5EF" opacity="1.000000" stroke="none" 
	d="
M137.687836,148.457428 
	C138.461487,149.047195 139.000214,149.835297 139.538956,150.623383 
	C139.073547,150.860168 138.608154,151.096954 138.142761,151.333740 
	C137.912811,150.441086 137.682861,149.548431 137.687836,148.457428 
z"/>
<path fill="#DEE5EF" opacity="1.000000" stroke="none" 
	d="
M210.961212,147.620789 
	C211.403534,147.210388 211.849457,147.131012 212.632263,146.992340 
	C212.969177,148.004944 212.969177,149.076813 212.969177,150.148697 
	C212.695694,150.230042 212.422226,150.311371 212.148743,150.392715 
	C211.754105,149.579071 211.359451,148.765442 210.961212,147.620789 
z"/>
<path fill="#DEE5EF" opacity="1.000000" stroke="none" 
	d="
M106.954834,147.623779 
	C107.407906,147.212494 107.858200,147.135727 108.651886,147.024017 
	C108.995262,148.064407 108.995262,149.139755 108.995262,150.215088 
	C108.705063,150.296814 108.414871,150.378525 108.124672,150.460251 
	C107.733795,149.626266 107.342918,148.792282 106.954834,147.623779 
z"/>
<path fill="#F2F5F9" opacity="1.000000" stroke="none" 
	d="
M174.120743,149.056763 
	C174.614655,148.408905 175.054581,148.055206 175.494507,147.701508 
	C175.501740,148.395615 175.508972,149.089722 175.516220,149.783844 
	C175.033066,149.639526 174.549911,149.495209 174.120743,149.056763 
z"/>
<path fill="#1A5BA2" opacity="1.000000" stroke="none" 
	d="
M106.213455,83.871925 
	C106.258514,83.224648 106.485817,82.372169 106.713120,81.519691 
	C107.112030,81.879494 107.510941,82.239296 107.901855,82.935684 
	C107.394478,83.403755 106.895081,83.535240 106.213455,83.871925 
z"/>
<path fill="#DEE5EF" opacity="1.000000" stroke="none" 
	d="
M140.268280,143.135101 
	C140.759506,143.821274 140.979126,144.558731 141.198746,145.296204 
	C140.862411,145.369598 140.526077,145.442993 140.189743,145.516403 
	C140.125381,144.739731 140.061035,143.963074 140.268280,143.135101 
z"/>
<path fill="#1758A1" opacity="1.000000" stroke="none" 
	d="
M196.642426,71.858986 
	C196.925247,72.317390 196.937820,72.854057 196.936234,73.793167 
	C196.738770,73.442825 196.555466,72.690041 196.642426,71.858986 
z"/>
<path fill="#DEE5EF" opacity="1.000000" stroke="none" 
	d="
M103.036911,145.442017 
	C102.692238,145.812668 102.419510,145.701996 102.111641,145.198288 
	C101.991203,144.447891 101.982094,143.902802 101.972977,143.357712 
	C102.326210,143.954620 102.679443,144.551529 103.036911,145.442017 
z"/>
<path fill="#DEE5EF" opacity="1.000000" stroke="none" 
	d="
M196.102600,149.878723 
	C196.632721,150.159088 197.180603,150.413727 197.670807,150.751953 
	C197.732986,150.794846 197.493149,151.275452 197.393250,151.553253 
	C196.940079,151.258286 196.486923,150.963303 196.021027,150.325775 
	C196.008301,149.983231 196.102600,149.878723 196.102600,149.878723 
z"/>
<path fill="#1758A1" opacity="1.000000" stroke="none" 
	d="
M200.940567,81.317368 
	C201.535553,81.427322 202.114426,81.859299 202.831055,82.529495 
	C202.287354,82.391594 201.605911,82.015488 200.940567,81.317368 
z"/>
<path fill="#F2F5F9" opacity="1.000000" stroke="none" 
	d="
M169.563904,150.265076 
	C169.138626,150.131897 168.866013,149.841492 168.593384,149.551071 
	C168.707932,149.460037 168.908096,149.276688 168.924240,149.291687 
	C169.201828,149.549194 169.456696,149.831192 169.563904,150.265076 
z"/>
<path fill="#DEE5EF" opacity="1.000000" stroke="none" 
	d="
M205.721359,150.598709 
	C205.851257,150.434464 206.076828,150.410095 206.302399,150.385727 
	C206.140610,150.503342 205.978821,150.620956 205.721359,150.598709 
z"/>
<path fill="#1758A1" opacity="1.000000" stroke="none" 
	d="
M199.977814,78.337830 
	C200.283676,78.573181 200.599182,79.137085 200.891388,80.044479 
	C200.574524,79.814110 200.280975,79.240257 199.977814,78.337830 
z"/>
<path fill="#1A5BA2" opacity="1.000000" stroke="none" 
	d="
M248.851410,73.014313 
	C249.033188,73.546051 249.010864,74.066505 248.914078,74.972748 
	C248.619827,74.780861 248.400040,74.203178 248.209412,73.310097 
	C248.238571,72.994705 248.647308,73.003029 248.851410,73.014313 
z"/>
<path fill="#1E5EA3" opacity="1.000000" stroke="none" 
	d="
M91.272049,72.114700 
	C91.049759,71.961823 91.102921,71.663216 91.431763,71.220634 
	C91.669670,71.376991 91.616348,71.674438 91.272049,72.114700 
z"/>
<path fill="#00489A" opacity="1.000000" stroke="none" 
	d="
M18.707420,16.104511 
	C18.901428,16.418945 18.740400,16.649273 18.290508,16.897264 
	C18.208214,16.679445 18.325129,16.381269 18.707420,16.104511 
z"/>
<path fill="#004397" opacity="1.000000" stroke="none" 
	d="
M282.925201,16.715780 
	C282.610443,16.919376 282.375854,16.766596 282.115662,16.325630 
	C282.335266,16.236717 282.640381,16.344036 282.925201,16.715780 
z"/>
<path fill="#DEE5EF" opacity="1.000000" stroke="none" 
	d="
M195.956970,150.031372 
	C195.794662,149.880676 195.683685,149.681839 195.572708,149.483002 
	C195.691772,149.518021 195.810837,149.553040 196.016251,149.733398 
	C196.102600,149.878723 196.008301,149.983231 195.956970,150.031372 
z"/>
<path fill="#00489A" opacity="1.000000" stroke="none" 
	d="
M18.075706,41.317909 
	C18.419250,41.115486 18.666176,41.310833 18.924198,41.830906 
	C18.696800,41.907562 18.378063,41.760910 18.075706,41.317909 
z"/>
<path fill="#00489A" opacity="1.000000" stroke="none" 
	d="
M20.770615,41.091316 
	C20.993763,41.141769 20.995949,41.311760 20.999767,41.736748 
	C20.835169,42.047218 20.668941,42.102684 20.247711,42.094429 
	C20.178354,41.757423 20.364004,41.484135 20.770615,41.091316 
z"/>
<path fill="#004397" opacity="1.000000" stroke="none" 
	d="
M18.103630,57.270058 
	C18.332569,57.213196 18.486023,57.372406 18.593500,57.558212 
	C18.617130,57.599064 18.477434,57.734394 18.260035,57.899902 
	C18.107121,57.973591 18.011606,57.495689 18.103630,57.270058 
z"/>
<path fill="#1E5EA3" opacity="1.000000" stroke="none" 
	d="
M75.176987,59.774574 
	C75.222015,59.680019 75.457741,59.416519 75.964638,59.110413 
	C75.946434,59.247078 75.657059,59.426350 75.176987,59.774574 
z"/>
<path fill="#1E5EA3" opacity="1.000000" stroke="none" 
	d="
M71.699417,61.841408 
	C71.938545,62.001785 71.885918,62.313961 71.544815,62.777809 
	C71.282494,62.614334 71.332924,62.302242 71.699417,61.841408 
z"/>
<path fill="#1E5EA3" opacity="1.000000" stroke="none" 
	d="
M93.300568,63.157478 
	C93.062431,62.992035 93.120789,62.676720 93.477348,62.213951 
	C93.724747,62.382374 93.665245,62.696079 93.300568,63.157478 
z"/>
<path fill="#004397" opacity="1.000000" stroke="none" 
	d="
M18.085655,128.331985 
	C18.350796,128.236740 18.600824,128.452316 18.949780,128.900787 
	C18.722651,128.970062 18.396597,128.806442 18.085655,128.331985 
z"/>
<path fill="#DEE5EF" opacity="1.000000" stroke="none" 
	d="
M138.444427,146.552277 
	C138.388077,146.472351 138.610886,146.449203 138.610886,146.449203 
	C138.610886,146.449203 138.500778,146.632202 138.444427,146.552277 
z"/>
<path fill="#F2F5F9" opacity="1.000000" stroke="none" 
	d="
M168.556458,144.465576 
	C168.592209,144.523499 168.520691,144.407654 168.556458,144.465576 
z"/>
<path fill="#054297" opacity="1.000000" stroke="none" 
	d="
M205.985382,143.980179 
	C206.160019,143.765686 206.315857,143.526642 206.471710,143.287598 
	C206.467072,143.609344 206.462433,143.931091 206.195587,144.078110 
	C205.933365,143.903381 205.966583,143.955612 205.985382,143.980179 
z"/>
<path fill="#004397" opacity="1.000000" stroke="none" 
	d="
M249.036591,78.280891 
	C249.354080,78.070557 249.601486,78.224815 249.881927,78.674789 
	C249.656479,78.769661 249.340332,78.661316 249.036591,78.280891 
z"/>
<path fill="#004397" opacity="1.000000" stroke="none" 
	d="
M282.291321,78.899780 
	C282.090057,78.579926 282.250824,78.346039 282.708374,78.098038 
	C282.793396,78.319580 282.676086,78.620201 282.291321,78.899780 
z"/>
<path fill="#0D529E" opacity="1.000000" stroke="none" 
	d="
M81.002174,105.296951 
	C81.348984,105.092072 81.597832,105.262962 81.888031,105.726135 
	C81.646294,105.817810 81.304581,105.702583 81.002174,105.296951 
z"/>
<path fill="#0D529E" opacity="1.000000" stroke="none" 
	d="
M131.256866,105.799423 
	C131.132614,105.553505 131.294250,105.353416 131.686707,105.111206 
	C131.920471,105.371010 131.795547,105.629738 131.256866,105.799423 
z"/>
<path fill="#004698" opacity="1.000000" stroke="none" 
	d="
M143.065201,105.293541 
	C143.396500,105.097427 143.630127,105.261314 143.892883,105.708763 
	C143.663376,105.794579 143.345215,105.681648 143.065201,105.293541 
z"/>
<path fill="#1A5BA2" opacity="1.000000" stroke="none" 
	d="
M117.812950,39.614841 
	C86.933113,39.919823 55.827713,39.855015 24.386272,39.558800 
	C46.440041,39.250290 68.829796,39.151192 91.219673,39.107044 
	C100.008789,39.089718 108.798141,39.195396 117.812950,39.614841 
z"/>
<path fill="#1758A1" opacity="1.000000" stroke="none" 
	d="
M203.733002,76.407440 
	C203.389618,76.356209 202.722595,76.527985 202.006775,76.416344 
	C202.441772,76.298775 202.925583,76.464615 203.733002,76.407440 
z"/>
<path fill="#1758A1" opacity="1.000000" stroke="none" 
	d="
M209.712173,64.920067 
	C209.916183,65.121414 209.801392,65.421661 209.379517,65.826782 
	C209.290588,65.669945 209.397552,65.365707 209.712173,64.920067 
z"/>
<path fill="#1758A1" opacity="1.000000" stroke="none" 
	d="
M208.690979,66.888832 
	C208.793365,67.055153 208.679840,67.363716 208.366867,67.824478 
	C208.269958,67.661476 208.372528,67.346275 208.690979,66.888832 
z"/>
<path fill="#1758A1" opacity="1.000000" stroke="none" 
	d="
M207.690674,68.890366 
	C207.792374,69.058548 207.676163,69.367088 207.358704,69.826675 
	C207.262558,69.662048 207.367661,69.346390 207.690674,68.890366 
z"/>
<path fill="#1A5BA2" opacity="1.000000" stroke="none" 
	d="
M230.468994,75.449051 
	C230.524963,75.415794 230.413010,75.482307 230.468994,75.449051 
z"/>
<path fill="#DEE5EF" opacity="1.000000" stroke="none" 
	d="
M176.154327,63.779129 
	C175.068542,63.094913 173.859131,62.357880 173.922806,61.755409 
	C174.015762,60.875954 174.966003,59.442104 175.650970,59.381779 
	C178.629562,59.119453 181.644440,59.269180 185.067200,59.269180 
	C183.728439,65.496872 179.548279,63.238251 176.154327,63.779129 
z"/>
<path fill="#F2F5F9" opacity="1.000000" stroke="none" 
	d="
M177.551926,82.029877 
	C178.591125,82.800148 179.193619,83.561066 179.796127,84.321976 
	C178.905792,84.883766 178.045258,85.864044 177.119614,85.929947 
	C174.181000,86.139160 171.218094,86.007347 167.969162,86.007347 
	C169.327194,79.864899 173.975006,82.770134 177.551926,82.029877 
z"/>
<path fill="#FBFCFD" opacity="1.000000" stroke="none" 
	d="
M91.598541,144.085373 
	C92.286858,145.511078 92.581444,146.841003 92.918121,148.511444 
	C91.560425,149.229202 90.160637,149.606445 88.299454,149.726837 
	C87.704109,149.259888 87.521080,149.109604 87.288948,149.019104 
	C86.689240,145.859406 87.170120,143.541031 91.598541,144.085373 
z"/>
<path fill="#F2F5F9" opacity="1.000000" stroke="none" 
	d="
M87.227371,149.256332 
	C87.521080,149.109604 87.704109,149.259888 87.912926,149.633698 
	C87.987808,149.797440 87.500603,149.851608 87.500603,149.851608 
	C87.500603,149.851608 87.165787,149.493561 87.227371,149.256332 
z"/>
<path fill="#FBFCFD" opacity="1.000000" stroke="none" 
	d="
M126.803589,141.234039 
	C126.395447,141.410248 125.837906,141.220932 125.309677,140.540741 
	C125.777397,140.322723 126.215797,140.595612 126.803589,141.234039 
z"/>
</svg>