<svg role="img" viewBox="0 0 24 24" xmlns="http://www.w3.org/2000/svg"><title>Clash of Clans</title><path fill-rule="evenodd" d="M6.4 2.2 4.8 3.8l4.55 4.55-.82.88L4.1 4.8 2.5 6.4l4.48 4.48-.9.96 1.42 1.42 3.15-3.36L6.4 2.2Zm11.2 0-4.25 7.7 3.15 3.36 1.42-1.42-.9-.96L21.5 6.4l-1.6-1.6-4.43 4.43-.82-.88L19.2 3.8l-1.6-1.6ZM12 4.6 19.2 7v5.1c0 4.5-2.86 8.2-7.2 9.8-4.34-1.6-7.2-5.3-7.2-9.8V7L12 4.6Zm-3.9 5.15 1.75-.08.74-1.59.72 1.59 1.77.08-1.32 1.18.45 1.7-1.5-.9-1.5.9.45-1.7-1.56-1.18Zm6.43 6.85a5.64 5.64 0 0 1-5.06 0l-.72 1.38a7.2 7.2 0 0 0 6.5 0l-.72-1.38Z"/></svg>
