<svg fill="#58CC02" role="img" viewBox="0 0 24 24" xmlns="http://www.w3.org/2000/svg"><title>Duolingo</title><path fill-rule="evenodd" d="M4.05 7.28 2.39 4.94c-.38-.54.2-1.24.8-.96l3.04 1.43A9.56 9.56 0 0 1 12 3.6c2.13 0 4.1.68 5.72 1.83l3.09-1.45c.6-.28 1.18.42.8.96l-1.69 2.38A8.95 8.95 0 0 1 21.7 12.7v3.23c0 2.9-2.35 5.25-5.25 5.25h-8.9a5.25 5.25 0 0 1-5.25-5.25V12.7a8.94 8.94 0 0 1 1.75-5.42Zm4.38 6.67a1.92 1.92 0 1 0 0-3.84 1.92 1.92 0 0 0 0 3.84Zm7.14 0a1.92 1.92 0 1 0 0-3.84 1.92 1.92 0 0 0 0 3.84Zm-5.01 2.42c.24.76.84 1.3 1.44 1.3s1.2-.54 1.44-1.3c.13-.4-.17-.8-.59-.8h-1.7c-.42 0-.72.4-.59.8Z"/></svg>
