<svg role="img" viewBox="0 0 24 24" xmlns="http://www.w3.org/2000/svg"><title>Genshin Impact</title><path fill-rule="evenodd" d="M12 1.7c.78 2.4 1.95 4.2 3.52 5.4 1.5 1.15 3.47 1.9 5.88 2.23-2.15 1.17-3.72 2.6-4.7 4.3-.93 1.62-1.3 3.66-1.12 6.12-1.88-1.62-3.74-2.43-5.58-2.43-1.83 0-3.7.81-5.58 2.43.18-2.46-.2-4.5-1.12-6.12-.98-1.7-2.55-3.13-4.7-4.3 2.41-.33 4.37-1.08 5.88-2.23C6.05 5.9 7.22 4.1 8 1.7c1.05 2.02 2.38 3.04 4 3.04s2.95-1.02 4-3.04Zm0 5.86a4.43 4.43 0 0 0-2.48.77 4.68 4.68 0 0 0-1.68 2.05l1.66.76c.45-.98 1.28-1.57 2.5-1.57s2.05.59 2.5 1.57l1.66-.76a4.68 4.68 0 0 0-1.68-2.05A4.43 4.43 0 0 0 12 7.56Zm0 3.1 1.2 2.44 2.7.4-1.95 1.9.46 2.68L12 16.81l-2.41 1.27.46-2.68-1.95-1.9 2.7-.4L12 10.66Z"/></svg>
